<mxfile host="app.diagrams.net" modified="2023-05-01T12:11:47.699Z" agent="Mozilla/5.0 (X11; Ubuntu; Linux x86_64; rv:109.0) Gecko/20100101 Firefox/112.0" etag="NAd-bCG11VF0cGE6-S5B" version="21.2.1" type="github">
  <diagram name="Страница 1" id="q1l9R9yOh7JBe0faKamn">
    <mxGraphModel dx="1054" dy="597" grid="1" gridSize="10" guides="1" tooltips="1" connect="1" arrows="1" fold="1" page="1" pageScale="1" pageWidth="827" pageHeight="1169" math="0" shadow="0">
      <root>
        <mxCell id="0" />
        <mxCell id="1" parent="0" />
        <mxCell id="MWshiME6rKWV4LbC__Ov-294" value="&lt;div style=&quot;font-size: 13px;&quot; align=&quot;right&quot;&gt;&lt;font style=&quot;font-size: 14px;&quot; color=&quot;#ffcc99&quot;&gt;proto ver 1.0&lt;/font&gt;&lt;/div&gt;" style="rounded=0;whiteSpace=wrap;html=1;align=right;" parent="1" vertex="1">
          <mxGeometry x="1270" y="651" width="360" height="380" as="geometry" />
        </mxCell>
        <mxCell id="MWshiME6rKWV4LbC__Ov-238" value="" style="rounded=0;whiteSpace=wrap;html=1;fillColor=#d5e8d4;strokeColor=#82b366;" parent="1" vertex="1">
          <mxGeometry x="904" y="481" width="200" height="110" as="geometry" />
        </mxCell>
        <mxCell id="MWshiME6rKWV4LbC__Ov-239" value="" style="group" parent="1" vertex="1" connectable="0">
          <mxGeometry x="924" y="641" width="186" height="70" as="geometry" />
        </mxCell>
        <mxCell id="MWshiME6rKWV4LbC__Ov-240" value="" style="rounded=0;whiteSpace=wrap;html=1;" parent="MWshiME6rKWV4LbC__Ov-239" vertex="1">
          <mxGeometry x="-24" y="-10" width="210" height="80" as="geometry" />
        </mxCell>
        <mxCell id="MWshiME6rKWV4LbC__Ov-241" value="" style="pointerEvents=1;verticalLabelPosition=bottom;shadow=0;dashed=0;align=center;fillColor=strokeColor;html=1;verticalAlign=top;strokeWidth=1;shape=mxgraph.electrical.miscellaneous.multicell_battery_tapped;rotation=-180;" parent="MWshiME6rKWV4LbC__Ov-239" vertex="1">
          <mxGeometry x="54" width="54" height="60" as="geometry" />
        </mxCell>
        <mxCell id="MWshiME6rKWV4LbC__Ov-242" value="" style="pointerEvents=1;verticalLabelPosition=bottom;shadow=0;dashed=0;align=center;fillColor=strokeColor;html=1;verticalAlign=top;strokeWidth=1;shape=mxgraph.electrical.miscellaneous.multicell_battery_tapped;rotation=-180;" parent="MWshiME6rKWV4LbC__Ov-239" vertex="1">
          <mxGeometry width="54" height="60" as="geometry" />
        </mxCell>
        <mxCell id="MWshiME6rKWV4LbC__Ov-243" value="" style="pointerEvents=1;verticalLabelPosition=bottom;shadow=0;dashed=0;align=center;fillColor=strokeColor;html=1;verticalAlign=top;strokeWidth=1;shape=mxgraph.electrical.miscellaneous.multicell_battery_tapped;rotation=-180;" parent="MWshiME6rKWV4LbC__Ov-239" vertex="1">
          <mxGeometry x="108" width="54" height="60" as="geometry" />
        </mxCell>
        <mxCell id="MWshiME6rKWV4LbC__Ov-244" value="" style="endArrow=classic;html=1;rounded=0;entryX=1;entryY=0.43;entryDx=0;entryDy=0;entryPerimeter=0;exitX=0.101;exitY=1.022;exitDx=0;exitDy=0;exitPerimeter=0;fillColor=#f8cecc;strokeColor=#b85450;" parent="1" source="MWshiME6rKWV4LbC__Ov-238" target="MWshiME6rKWV4LbC__Ov-242" edge="1">
          <mxGeometry width="50" height="50" relative="1" as="geometry">
            <mxPoint x="834" y="671" as="sourcePoint" />
            <mxPoint x="884" y="621" as="targetPoint" />
          </mxGeometry>
        </mxCell>
        <mxCell id="MWshiME6rKWV4LbC__Ov-245" value="" style="endArrow=none;html=1;rounded=0;entryX=1;entryY=0.43;entryDx=0;entryDy=0;entryPerimeter=0;exitX=0.101;exitY=1.022;exitDx=0;exitDy=0;exitPerimeter=0;fillColor=#dae8fc;strokeColor=#6c8ebf;endFill=0;startArrow=classic;startFill=1;" parent="1" edge="1">
          <mxGeometry width="50" height="50" relative="1" as="geometry">
            <mxPoint x="1086" y="591" as="sourcePoint" />
            <mxPoint x="1086" y="673" as="targetPoint" />
          </mxGeometry>
        </mxCell>
        <mxCell id="MWshiME6rKWV4LbC__Ov-246" value="A" style="verticalLabelPosition=middle;shadow=0;dashed=0;align=center;html=1;verticalAlign=middle;strokeWidth=1;shape=ellipse;aspect=fixed;fontSize=50;" parent="1" vertex="1">
          <mxGeometry x="934" y="511" width="60" height="60" as="geometry" />
        </mxCell>
        <mxCell id="MWshiME6rKWV4LbC__Ov-247" value="V" style="verticalLabelPosition=middle;shadow=0;dashed=0;align=center;html=1;verticalAlign=middle;strokeWidth=1;shape=ellipse;aspect=fixed;fontSize=50;" parent="1" vertex="1">
          <mxGeometry x="1014" y="511" width="60" height="60" as="geometry" />
        </mxCell>
        <mxCell id="MWshiME6rKWV4LbC__Ov-248" value="&lt;div style=&quot;font-size: 13px;&quot; align=&quot;right&quot;&gt;&lt;font style=&quot;font-size: 14px;&quot; color=&quot;#ffcc99&quot;&gt;proto ver 1.0&lt;/font&gt;&lt;/div&gt;" style="rounded=0;whiteSpace=wrap;html=1;align=right;fillColor=#d5e8d4;strokeColor=#82b366;" parent="1" vertex="1">
          <mxGeometry x="1270" y="301" width="360" height="270" as="geometry" />
        </mxCell>
        <mxCell id="MWshiME6rKWV4LbC__Ov-252" style="edgeStyle=orthogonalEdgeStyle;rounded=0;orthogonalLoop=1;jettySize=auto;html=1;exitX=0;exitY=0.5;exitDx=0;exitDy=0;entryX=0.375;entryY=1;entryDx=0;entryDy=0;entryPerimeter=0;fillColor=#f8cecc;strokeColor=#FF0000;" parent="1" source="MWshiME6rKWV4LbC__Ov-249" target="MWshiME6rKWV4LbC__Ov-248" edge="1">
          <mxGeometry relative="1" as="geometry">
            <Array as="points">
              <mxPoint x="1405" y="368" />
            </Array>
          </mxGeometry>
        </mxCell>
        <mxCell id="MWshiME6rKWV4LbC__Ov-253" style="edgeStyle=orthogonalEdgeStyle;rounded=0;orthogonalLoop=1;jettySize=auto;html=1;exitX=1;exitY=0.5;exitDx=0;exitDy=0;entryX=0.667;entryY=1;entryDx=0;entryDy=0;entryPerimeter=0;" parent="1" source="MWshiME6rKWV4LbC__Ov-249" target="MWshiME6rKWV4LbC__Ov-248" edge="1">
          <mxGeometry relative="1" as="geometry">
            <Array as="points">
              <mxPoint x="1510" y="368" />
            </Array>
          </mxGeometry>
        </mxCell>
        <mxCell id="MWshiME6rKWV4LbC__Ov-249" value="&lt;div&gt;AC/DC&lt;/div&gt;&lt;div&gt;12V&lt;br&gt;&lt;/div&gt;" style="rounded=1;whiteSpace=wrap;html=1;" parent="1" vertex="1">
          <mxGeometry x="1435" y="351" width="50" height="34" as="geometry" />
        </mxCell>
        <mxCell id="MWshiME6rKWV4LbC__Ov-250" value="A" style="verticalLabelPosition=middle;shadow=0;dashed=0;align=center;html=1;verticalAlign=middle;strokeWidth=1;shape=ellipse;aspect=fixed;fontSize=50;" parent="1" vertex="1">
          <mxGeometry x="1375" y="481" width="60" height="60" as="geometry" />
        </mxCell>
        <mxCell id="MWshiME6rKWV4LbC__Ov-257" style="edgeStyle=orthogonalEdgeStyle;rounded=0;orthogonalLoop=1;jettySize=auto;html=1;exitX=1;exitY=0.5;exitDx=0;exitDy=0;" parent="1" source="MWshiME6rKWV4LbC__Ov-251" edge="1">
          <mxGeometry relative="1" as="geometry">
            <mxPoint x="1510" y="419" as="targetPoint" />
          </mxGeometry>
        </mxCell>
        <mxCell id="MWshiME6rKWV4LbC__Ov-251" value="V" style="verticalLabelPosition=middle;shadow=0;dashed=0;align=center;html=1;verticalAlign=middle;strokeWidth=1;shape=ellipse;aspect=fixed;fontSize=50;" parent="1" vertex="1">
          <mxGeometry x="1430" y="388.65" width="60" height="60" as="geometry" />
        </mxCell>
        <mxCell id="MWshiME6rKWV4LbC__Ov-254" value="+" style="text;html=1;align=center;verticalAlign=middle;resizable=0;points=[];autosize=1;strokeColor=none;fillColor=none;" parent="1" vertex="1">
          <mxGeometry x="1400" y="541" width="30" height="30" as="geometry" />
        </mxCell>
        <mxCell id="MWshiME6rKWV4LbC__Ov-255" value="-" style="text;html=1;align=center;verticalAlign=middle;resizable=0;points=[];autosize=1;strokeColor=none;fillColor=none;" parent="1" vertex="1">
          <mxGeometry x="1480" y="541" width="30" height="30" as="geometry" />
        </mxCell>
        <mxCell id="MWshiME6rKWV4LbC__Ov-259" value="" style="endArrow=classic;html=1;rounded=0;exitX=0;exitY=0.5;exitDx=0;exitDy=0;" parent="1" source="MWshiME6rKWV4LbC__Ov-251" edge="1">
          <mxGeometry width="50" height="50" relative="1" as="geometry">
            <mxPoint x="1190" y="471" as="sourcePoint" />
            <mxPoint x="1406" y="419" as="targetPoint" />
          </mxGeometry>
        </mxCell>
        <mxCell id="MWshiME6rKWV4LbC__Ov-260" value="" style="endArrow=classic;html=1;rounded=0;exitX=0;exitY=0.5;exitDx=0;exitDy=0;" parent="1" source="MWshiME6rKWV4LbC__Ov-250" edge="1">
          <mxGeometry width="50" height="50" relative="1" as="geometry">
            <mxPoint x="1360" y="471" as="sourcePoint" />
            <mxPoint x="1290" y="511" as="targetPoint" />
          </mxGeometry>
        </mxCell>
        <mxCell id="MWshiME6rKWV4LbC__Ov-263" value="" style="endArrow=classic;html=1;rounded=0;exitX=0.5;exitY=1;exitDx=0;exitDy=0;" parent="1" source="MWshiME6rKWV4LbC__Ov-251" edge="1">
          <mxGeometry width="50" height="50" relative="1" as="geometry">
            <mxPoint x="1190" y="451" as="sourcePoint" />
            <mxPoint x="1290" y="471" as="targetPoint" />
            <Array as="points">
              <mxPoint x="1460" y="471" />
            </Array>
          </mxGeometry>
        </mxCell>
        <mxCell id="MWshiME6rKWV4LbC__Ov-264" value="I2C" style="text;html=1;align=center;verticalAlign=middle;resizable=0;points=[];autosize=1;strokeColor=none;fillColor=none;" parent="1" vertex="1">
          <mxGeometry x="1270" y="476.35" width="40" height="30" as="geometry" />
        </mxCell>
        <mxCell id="MWshiME6rKWV4LbC__Ov-265" value="" style="shape=flexArrow;endArrow=classic;html=1;rounded=0;exitX=0.528;exitY=0.037;exitDx=0;exitDy=0;exitPerimeter=0;entryX=0.5;entryY=0;entryDx=0;entryDy=0;" parent="1" edge="1">
          <mxGeometry width="50" height="50" relative="1" as="geometry">
            <mxPoint x="1449.0800000000004" y="306.99" as="sourcePoint" />
            <mxPoint x="1449" y="347" as="targetPoint" />
          </mxGeometry>
        </mxCell>
        <mxCell id="MWshiME6rKWV4LbC__Ov-300" style="edgeStyle=orthogonalEdgeStyle;rounded=0;orthogonalLoop=1;jettySize=auto;html=1;entryX=0;entryY=0.25;entryDx=0;entryDy=0;" parent="1" source="MWshiME6rKWV4LbC__Ov-275" target="MWshiME6rKWV4LbC__Ov-291" edge="1">
          <mxGeometry relative="1" as="geometry" />
        </mxCell>
        <mxCell id="MWshiME6rKWV4LbC__Ov-275" value="CPU" style="whiteSpace=wrap;html=1;aspect=fixed;" parent="1" vertex="1">
          <mxGeometry x="1275.2" y="732.45" width="49.6" height="49.6" as="geometry" />
        </mxCell>
        <mxCell id="MWshiME6rKWV4LbC__Ov-277" value="" style="verticalLabelPosition=bottom;shadow=0;dashed=0;align=center;html=1;verticalAlign=top;shape=mxgraph.electrical.radio.aerial_-_antenna_1;" parent="1" vertex="1">
          <mxGeometry x="1290" y="661" width="20" height="20" as="geometry" />
        </mxCell>
        <mxCell id="MWshiME6rKWV4LbC__Ov-280" value="" style="pointerEvents=1;verticalLabelPosition=bottom;shadow=0;dashed=0;align=center;fillColor=strokeColor;html=1;verticalAlign=top;strokeWidth=1;shape=mxgraph.electrical.miscellaneous.multicell_battery_tapped;rotation=-180;" parent="1" vertex="1">
          <mxGeometry x="1349" y="956.9299999999998" width="54" height="60" as="geometry" />
        </mxCell>
        <mxCell id="MWshiME6rKWV4LbC__Ov-292" value="" style="edgeStyle=orthogonalEdgeStyle;rounded=0;orthogonalLoop=1;jettySize=auto;html=1;entryX=0;entryY=0.5;entryDx=0;entryDy=0;exitX=1;exitY=0.43;exitDx=0;exitDy=0;exitPerimeter=0;strokeColor=#FF0000;" parent="1" source="MWshiME6rKWV4LbC__Ov-281" target="MWshiME6rKWV4LbC__Ov-291" edge="1">
          <mxGeometry relative="1" as="geometry">
            <mxPoint x="1215" y="986.9299999999998" as="targetPoint" />
            <mxPoint x="1290" y="1011" as="sourcePoint" />
            <Array as="points">
              <mxPoint x="1290" y="991" />
              <mxPoint x="1290" y="858" />
            </Array>
          </mxGeometry>
        </mxCell>
        <mxCell id="MWshiME6rKWV4LbC__Ov-281" value="" style="pointerEvents=1;verticalLabelPosition=bottom;shadow=0;dashed=0;align=center;fillColor=strokeColor;html=1;verticalAlign=top;strokeWidth=1;shape=mxgraph.electrical.miscellaneous.multicell_battery_tapped;rotation=-180;" parent="1" vertex="1">
          <mxGeometry x="1295" y="956.9299999999998" width="54" height="60" as="geometry" />
        </mxCell>
        <mxCell id="MWshiME6rKWV4LbC__Ov-282" value="" style="pointerEvents=1;verticalLabelPosition=bottom;shadow=0;dashed=0;align=center;fillColor=strokeColor;html=1;verticalAlign=top;strokeWidth=1;shape=mxgraph.electrical.miscellaneous.multicell_battery_tapped;rotation=-180;" parent="1" vertex="1">
          <mxGeometry x="1403" y="956.9299999999998" width="54" height="60" as="geometry" />
        </mxCell>
        <mxCell id="MWshiME6rKWV4LbC__Ov-283" value="" style="pointerEvents=1;verticalLabelPosition=bottom;shadow=0;dashed=1;align=center;fillColor=strokeColor;html=1;verticalAlign=top;strokeWidth=1;shape=mxgraph.electrical.miscellaneous.multicell_battery_tapped;rotation=-180;" parent="1" vertex="1">
          <mxGeometry x="1511" y="956.9299999999998" width="54" height="60" as="geometry" />
        </mxCell>
        <mxCell id="MWshiME6rKWV4LbC__Ov-284" value="" style="pointerEvents=1;verticalLabelPosition=bottom;shadow=0;dashed=1;align=center;fillColor=strokeColor;html=1;verticalAlign=top;strokeWidth=1;shape=mxgraph.electrical.miscellaneous.multicell_battery_tapped;rotation=-180;" parent="1" vertex="1">
          <mxGeometry x="1457" y="956.9299999999998" width="54" height="60" as="geometry" />
        </mxCell>
        <mxCell id="MWshiME6rKWV4LbC__Ov-293" value="" style="edgeStyle=orthogonalEdgeStyle;rounded=0;orthogonalLoop=1;jettySize=auto;html=1;entryX=1;entryY=0.5;entryDx=0;entryDy=0;exitX=0;exitY=0.43;exitDx=0;exitDy=0;exitPerimeter=0;" parent="1" source="MWshiME6rKWV4LbC__Ov-285" target="MWshiME6rKWV4LbC__Ov-291" edge="1">
          <mxGeometry relative="1" as="geometry">
            <mxPoint x="1699" y="986.9299999999998" as="targetPoint" />
            <Array as="points">
              <mxPoint x="1620" y="991" />
              <mxPoint x="1620" y="858" />
            </Array>
          </mxGeometry>
        </mxCell>
        <mxCell id="MWshiME6rKWV4LbC__Ov-285" value="" style="pointerEvents=1;verticalLabelPosition=bottom;shadow=0;dashed=1;align=center;fillColor=strokeColor;html=1;verticalAlign=top;strokeWidth=1;shape=mxgraph.electrical.miscellaneous.multicell_battery_tapped;rotation=-180;" parent="1" vertex="1">
          <mxGeometry x="1565" y="956.9299999999998" width="54" height="60" as="geometry" />
        </mxCell>
        <mxCell id="MWshiME6rKWV4LbC__Ov-286" value="Balancer" style="rounded=0;whiteSpace=wrap;html=1;" parent="1" vertex="1">
          <mxGeometry x="1310" y="916.9300000000001" width="294" height="40" as="geometry" />
        </mxCell>
        <mxCell id="MWshiME6rKWV4LbC__Ov-287" value="" style="endArrow=classic;html=1;rounded=0;entryX=0.333;entryY=-0.001;entryDx=0;entryDy=0;entryPerimeter=0;strokeColor=#FF0000;exitX=0.383;exitY=0.004;exitDx=0;exitDy=0;exitPerimeter=0;startArrow=classic;startFill=1;" parent="1" source="MWshiME6rKWV4LbC__Ov-294" target="MWshiME6rKWV4LbC__Ov-286" edge="1">
          <mxGeometry width="50" height="50" relative="1" as="geometry">
            <mxPoint x="1408" y="719" as="sourcePoint" />
            <mxPoint x="1450" y="761" as="targetPoint" />
          </mxGeometry>
        </mxCell>
        <mxCell id="MWshiME6rKWV4LbC__Ov-288" value="" style="endArrow=classic;html=1;rounded=0;exitX=0.666;exitY=0.004;exitDx=0;exitDy=0;exitPerimeter=0;entryX=0.68;entryY=0.023;entryDx=0;entryDy=0;entryPerimeter=0;startArrow=classic;startFill=1;" parent="1" source="MWshiME6rKWV4LbC__Ov-294" target="MWshiME6rKWV4LbC__Ov-286" edge="1">
          <mxGeometry width="50" height="50" relative="1" as="geometry">
            <mxPoint x="1510" y="719" as="sourcePoint" />
            <mxPoint x="1510" y="891" as="targetPoint" />
          </mxGeometry>
        </mxCell>
        <mxCell id="MWshiME6rKWV4LbC__Ov-291" value="comutator" style="rounded=0;whiteSpace=wrap;html=1;" parent="1" vertex="1">
          <mxGeometry x="1390" y="827.65" width="140" height="61.5" as="geometry" />
        </mxCell>
        <mxCell id="MWshiME6rKWV4LbC__Ov-295" style="edgeStyle=orthogonalEdgeStyle;rounded=0;orthogonalLoop=1;jettySize=auto;html=1;exitX=1;exitY=0.5;exitDx=0;exitDy=0;" parent="1" source="MWshiME6rKWV4LbC__Ov-296" edge="1">
          <mxGeometry relative="1" as="geometry">
            <mxPoint x="1512" y="792.2" as="targetPoint" />
          </mxGeometry>
        </mxCell>
        <mxCell id="MWshiME6rKWV4LbC__Ov-296" value="V" style="verticalLabelPosition=middle;shadow=0;dashed=0;align=center;html=1;verticalAlign=middle;strokeWidth=1;shape=ellipse;aspect=fixed;fontSize=50;" parent="1" vertex="1">
          <mxGeometry x="1432" y="761.85" width="60" height="60" as="geometry" />
        </mxCell>
        <mxCell id="MWshiME6rKWV4LbC__Ov-297" value="" style="endArrow=classic;html=1;rounded=0;exitX=0;exitY=0.5;exitDx=0;exitDy=0;" parent="1" source="MWshiME6rKWV4LbC__Ov-296" edge="1">
          <mxGeometry width="50" height="50" relative="1" as="geometry">
            <mxPoint x="1192" y="844.2" as="sourcePoint" />
            <mxPoint x="1408" y="792.2" as="targetPoint" />
          </mxGeometry>
        </mxCell>
        <mxCell id="MWshiME6rKWV4LbC__Ov-298" value="A" style="verticalLabelPosition=middle;shadow=0;dashed=0;align=center;html=1;verticalAlign=middle;strokeWidth=1;shape=ellipse;aspect=fixed;fontSize=50;" parent="1" vertex="1">
          <mxGeometry x="1378" y="691.78" width="60" height="60" as="geometry" />
        </mxCell>
        <mxCell id="MWshiME6rKWV4LbC__Ov-299" value="" style="shape=flexArrow;endArrow=classic;html=1;rounded=0;" parent="1" edge="1">
          <mxGeometry width="50" height="50" relative="1" as="geometry">
            <mxPoint x="1140" y="611" as="sourcePoint" />
            <mxPoint x="1220" y="611" as="targetPoint" />
          </mxGeometry>
        </mxCell>
        <mxCell id="MWshiME6rKWV4LbC__Ov-302" value="" style="pointerEvents=1;verticalLabelPosition=bottom;shadow=0;dashed=0;align=center;html=1;verticalAlign=top;shape=mxgraph.electrical.miscellaneous.fuse_2;rotation=90;" parent="1" vertex="1">
          <mxGeometry x="1450" y="320.35" width="48" height="12.65" as="geometry" />
        </mxCell>
        <mxCell id="MWshiME6rKWV4LbC__Ov-303" value="WiFi/BT" style="whiteSpace=wrap;html=1;aspect=fixed;" parent="1" vertex="1">
          <mxGeometry x="1275.2" y="682.85" width="49.6" height="49.6" as="geometry" />
        </mxCell>
        <mxCell id="MWshiME6rKWV4LbC__Ov-306" value="&lt;h1&gt;Martin 2022&lt;br&gt;&lt;/h1&gt;&lt;p&gt;&lt;font style=&quot;font-size: 20px;&quot;&gt;Общая схема прототипа.&lt;/font&gt;&lt;/p&gt;&lt;p&gt;&lt;font style=&quot;font-size: 20px;&quot;&gt;1 - блок индикации и включения&amp;nbsp;&amp;nbsp;&amp;nbsp;&amp;nbsp;&amp;nbsp; &lt;br&gt;&lt;/font&gt;&lt;/p&gt;&lt;p&gt;&lt;font style=&quot;font-size: 20px;&quot;&gt;2 - блок механики&amp;nbsp;&amp;nbsp;&amp;nbsp;&amp;nbsp;&amp;nbsp;&amp;nbsp;&amp;nbsp;&amp;nbsp;&amp;nbsp;&amp;nbsp;&amp;nbsp;&amp;nbsp;&amp;nbsp;&amp;nbsp;&amp;nbsp;&amp;nbsp;&amp;nbsp;&amp;nbsp;&amp;nbsp;&amp;nbsp;&amp;nbsp;&amp;nbsp;&amp;nbsp;&amp;nbsp;&amp;nbsp;&amp;nbsp;&amp;nbsp;&amp;nbsp;&amp;nbsp; &lt;br&gt;&lt;/font&gt;&lt;/p&gt;&lt;p&gt;&lt;font style=&quot;font-size: 20px;&quot;&gt;3 - блок ВЧ&amp;nbsp;&amp;nbsp;&amp;nbsp;&amp;nbsp;&amp;nbsp;&amp;nbsp;&amp;nbsp;&amp;nbsp;&amp;nbsp;&amp;nbsp;&amp;nbsp;&amp;nbsp;&amp;nbsp;&amp;nbsp;&amp;nbsp;&amp;nbsp;&amp;nbsp;&amp;nbsp;&amp;nbsp;&amp;nbsp;&amp;nbsp;&amp;nbsp;&amp;nbsp;&amp;nbsp;&amp;nbsp;&amp;nbsp;&amp;nbsp;&amp;nbsp;&amp;nbsp;&amp;nbsp;&amp;nbsp;&amp;nbsp;&amp;nbsp;&amp;nbsp;&amp;nbsp;&amp;nbsp;&amp;nbsp;&amp;nbsp;&amp;nbsp;&amp;nbsp; &lt;br&gt;&lt;/font&gt;&lt;/p&gt;&lt;p&gt;&lt;font style=&quot;font-size: 20px;&quot;&gt;4 - модуль зарядки универсальный &lt;br&gt;&lt;/font&gt;&lt;/p&gt;&lt;p&gt;&lt;font style=&quot;font-size: 20px;&quot;&gt;5 - заряжаемый модуль&amp;nbsp;&amp;nbsp;&amp;nbsp;&amp;nbsp;&amp;nbsp;&amp;nbsp;&amp;nbsp;&amp;nbsp;&amp;nbsp;&amp;nbsp;&amp;nbsp;&amp;nbsp;&amp;nbsp;&amp;nbsp;&amp;nbsp;&amp;nbsp;&amp;nbsp;&amp;nbsp;&amp;nbsp;&amp;nbsp;&amp;nbsp; &lt;br&gt;&lt;/font&gt;&lt;/p&gt;&lt;p&gt;&lt;font style=&quot;font-size: 20px;&quot;&gt;6 - остальные модули зарядки&lt;br&gt;&lt;/font&gt;&lt;/p&gt;" style="text;html=1;strokeColor=none;fillColor=none;spacing=5;spacingTop=-20;whiteSpace=wrap;overflow=hidden;rounded=0;" parent="1" vertex="1">
          <mxGeometry x="10" y="10" width="350" height="296" as="geometry" />
        </mxCell>
        <mxCell id="MWshiME6rKWV4LbC__Ov-320" value="&lt;font size=&quot;1&quot;&gt;&lt;b style=&quot;font-size: 22px;&quot;&gt;4&lt;/b&gt;&lt;/font&gt;" style="ellipse;whiteSpace=wrap;html=1;aspect=fixed;fillColor=#f5f5f5;fontColor=#333333;strokeColor=#666666;" parent="1" vertex="1">
          <mxGeometry x="870" y="522" width="28" height="28" as="geometry" />
        </mxCell>
        <mxCell id="MWshiME6rKWV4LbC__Ov-321" value="&lt;font size=&quot;1&quot;&gt;&lt;b style=&quot;font-size: 22px;&quot;&gt;4&lt;/b&gt;&lt;/font&gt;" style="ellipse;whiteSpace=wrap;html=1;aspect=fixed;fillColor=#f5f5f5;fontColor=#333333;strokeColor=#666666;" parent="1" vertex="1">
          <mxGeometry x="1240" y="422" width="28" height="28" as="geometry" />
        </mxCell>
        <mxCell id="MWshiME6rKWV4LbC__Ov-322" value="&lt;font size=&quot;1&quot;&gt;&lt;b style=&quot;font-size: 22px;&quot;&gt;5&lt;/b&gt;&lt;/font&gt;" style="ellipse;whiteSpace=wrap;html=1;aspect=fixed;fillColor=#f5f5f5;fontColor=#333333;strokeColor=#666666;" parent="1" vertex="1">
          <mxGeometry x="870" y="657" width="28" height="28" as="geometry" />
        </mxCell>
        <mxCell id="MWshiME6rKWV4LbC__Ov-323" value="&lt;font size=&quot;1&quot;&gt;&lt;b style=&quot;font-size: 22px;&quot;&gt;5&lt;/b&gt;&lt;/font&gt;" style="ellipse;whiteSpace=wrap;html=1;aspect=fixed;fillColor=#f5f5f5;fontColor=#333333;strokeColor=#666666;" parent="1" vertex="1">
          <mxGeometry x="1242" y="844.4" width="28" height="28" as="geometry" />
        </mxCell>
        <mxCell id="MWshiME6rKWV4LbC__Ov-324" value="" style="group" parent="1" vertex="1" connectable="0">
          <mxGeometry y="324" width="820" height="810" as="geometry" />
        </mxCell>
        <mxCell id="MWshiME6rKWV4LbC__Ov-307" value="" style="rounded=0;whiteSpace=wrap;html=1;" parent="MWshiME6rKWV4LbC__Ov-324" vertex="1">
          <mxGeometry width="820" height="810" as="geometry" />
        </mxCell>
        <mxCell id="MWshiME6rKWV4LbC__Ov-3" value="" style="pointerEvents=1;verticalLabelPosition=bottom;shadow=0;dashed=0;align=center;html=1;verticalAlign=top;shape=mxgraph.electrical.signal_sources.source;aspect=fixed;points=[[0.5,0,0],[1,0.5,0],[0.5,1,0],[0,0.5,0]];elSignalType=ac;" parent="MWshiME6rKWV4LbC__Ov-324" vertex="1">
          <mxGeometry x="10" y="22" width="30" height="30" as="geometry" />
        </mxCell>
        <mxCell id="MWshiME6rKWV4LbC__Ov-4" value="AC 220-250V" style="text;html=1;align=center;verticalAlign=middle;resizable=0;points=[];autosize=1;strokeColor=none;fillColor=none;" parent="MWshiME6rKWV4LbC__Ov-324" vertex="1">
          <mxGeometry x="30" y="22" width="100" height="30" as="geometry" />
        </mxCell>
        <mxCell id="MWshiME6rKWV4LbC__Ov-5" value="SERVER" style="whiteSpace=wrap;html=1;aspect=fixed;" parent="MWshiME6rKWV4LbC__Ov-324" vertex="1">
          <mxGeometry x="210" y="252" width="120" height="120" as="geometry" />
        </mxCell>
        <mxCell id="MWshiME6rKWV4LbC__Ov-39" value="" style="group" parent="MWshiME6rKWV4LbC__Ov-324" vertex="1" connectable="0">
          <mxGeometry x="247" y="72" width="40" height="170" as="geometry" />
        </mxCell>
        <mxCell id="MWshiME6rKWV4LbC__Ov-7" value="AC-DC" style="pointerEvents=1;verticalLabelPosition=bottom;shadow=0;dashed=0;align=center;html=1;verticalAlign=top;shape=mxgraph.electrical.signal_sources.dc_source_1;" parent="MWshiME6rKWV4LbC__Ov-39" vertex="1">
          <mxGeometry y="50" width="40" height="40" as="geometry" />
        </mxCell>
        <mxCell id="MWshiME6rKWV4LbC__Ov-19" value="" style="shape=flexArrow;endArrow=classic;html=1;rounded=0;dashed=1;dashPattern=1 1;entryX=0.58;entryY=0.135;entryDx=0;entryDy=0;entryPerimeter=0;" parent="MWshiME6rKWV4LbC__Ov-39" target="MWshiME6rKWV4LbC__Ov-7" edge="1">
          <mxGeometry width="50" height="50" relative="1" as="geometry">
            <mxPoint x="23" as="sourcePoint" />
            <mxPoint x="23" y="40" as="targetPoint" />
          </mxGeometry>
        </mxCell>
        <mxCell id="MWshiME6rKWV4LbC__Ov-20" value="" style="shape=flexArrow;endArrow=classic;html=1;rounded=0;entryX=0.5;entryY=0;entryDx=0;entryDy=0;entryPerimeter=0;dashed=1;dashPattern=1 1;" parent="MWshiME6rKWV4LbC__Ov-39" edge="1">
          <mxGeometry width="50" height="50" relative="1" as="geometry">
            <mxPoint x="22.799999999999997" y="120" as="sourcePoint" />
            <mxPoint x="22.799999999999997" y="170" as="targetPoint" />
          </mxGeometry>
        </mxCell>
        <mxCell id="MWshiME6rKWV4LbC__Ov-120" value="I2C" style="text;html=1;align=center;verticalAlign=middle;resizable=0;points=[];autosize=1;strokeColor=none;fillColor=none;" parent="MWshiME6rKWV4LbC__Ov-324" vertex="1">
          <mxGeometry x="400" y="157" width="40" height="30" as="geometry" />
        </mxCell>
        <mxCell id="MWshiME6rKWV4LbC__Ov-122" value="" style="group;dashed=1;" parent="MWshiME6rKWV4LbC__Ov-324" vertex="1" connectable="0">
          <mxGeometry x="399.99561643835614" y="562" width="145.78027397260274" height="136.29629629629628" as="geometry" />
        </mxCell>
        <mxCell id="MWshiME6rKWV4LbC__Ov-123" value="" style="edgeStyle=orthogonalEdgeStyle;rounded=0;orthogonalLoop=1;jettySize=auto;html=1;dashed=1;" parent="MWshiME6rKWV4LbC__Ov-122" source="MWshiME6rKWV4LbC__Ov-124" edge="1">
          <mxGeometry relative="1" as="geometry">
            <mxPoint y="32.59259259259259" as="targetPoint" />
          </mxGeometry>
        </mxCell>
        <mxCell id="MWshiME6rKWV4LbC__Ov-124" value="" style="rounded=0;whiteSpace=wrap;html=1;dashed=1;" parent="MWshiME6rKWV4LbC__Ov-122" vertex="1">
          <mxGeometry x="23.704109589041096" width="118.52054794520548" height="65.18518518518518" as="geometry" />
        </mxCell>
        <mxCell id="MWshiME6rKWV4LbC__Ov-125" value="" style="group;dashed=1;" parent="MWshiME6rKWV4LbC__Ov-122" vertex="1" connectable="0">
          <mxGeometry x="35.556164383561644" y="94.81481481481481" width="110.22410958904109" height="41.48148148148148" as="geometry" />
        </mxCell>
        <mxCell id="MWshiME6rKWV4LbC__Ov-126" value="" style="rounded=0;whiteSpace=wrap;html=1;dashed=1;" parent="MWshiME6rKWV4LbC__Ov-125" vertex="1">
          <mxGeometry x="-14.222465753424657" y="-5.925925925925926" width="124.44657534246575" height="47.407407407407405" as="geometry" />
        </mxCell>
        <mxCell id="MWshiME6rKWV4LbC__Ov-127" value="" style="pointerEvents=1;verticalLabelPosition=bottom;shadow=0;dashed=1;align=center;fillColor=strokeColor;html=1;verticalAlign=top;strokeWidth=1;shape=mxgraph.electrical.miscellaneous.multicell_battery_tapped;rotation=-180;" parent="MWshiME6rKWV4LbC__Ov-125" vertex="1">
          <mxGeometry x="32.00054794520548" width="32.00054794520548" height="35.55555555555556" as="geometry" />
        </mxCell>
        <mxCell id="MWshiME6rKWV4LbC__Ov-128" value="" style="pointerEvents=1;verticalLabelPosition=bottom;shadow=0;dashed=1;align=center;fillColor=strokeColor;html=1;verticalAlign=top;strokeWidth=1;shape=mxgraph.electrical.miscellaneous.multicell_battery_tapped;rotation=-180;" parent="MWshiME6rKWV4LbC__Ov-125" vertex="1">
          <mxGeometry width="32.00054794520548" height="35.55555555555556" as="geometry" />
        </mxCell>
        <mxCell id="MWshiME6rKWV4LbC__Ov-129" value="" style="pointerEvents=1;verticalLabelPosition=bottom;shadow=0;dashed=1;align=center;fillColor=strokeColor;html=1;verticalAlign=top;strokeWidth=1;shape=mxgraph.electrical.miscellaneous.multicell_battery_tapped;rotation=-180;" parent="MWshiME6rKWV4LbC__Ov-125" vertex="1">
          <mxGeometry x="64.00109589041097" width="32.00054794520548" height="35.55555555555556" as="geometry" />
        </mxCell>
        <mxCell id="MWshiME6rKWV4LbC__Ov-135" value="A" style="verticalLabelPosition=middle;shadow=0;dashed=1;align=center;html=1;verticalAlign=middle;strokeWidth=1;shape=ellipse;aspect=fixed;fontSize=50;" parent="MWshiME6rKWV4LbC__Ov-122" vertex="1">
          <mxGeometry x="41.48219178082192" y="17.77777777777778" width="29.629629629629626" height="29.629629629629626" as="geometry" />
        </mxCell>
        <mxCell id="MWshiME6rKWV4LbC__Ov-136" value="V" style="verticalLabelPosition=middle;shadow=0;dashed=1;align=center;html=1;verticalAlign=middle;strokeWidth=1;shape=ellipse;aspect=fixed;fontSize=50;" parent="MWshiME6rKWV4LbC__Ov-122" vertex="1">
          <mxGeometry x="88.89041095890411" y="17.77777777777778" width="29.629629629629626" height="29.629629629629626" as="geometry" />
        </mxCell>
        <mxCell id="MWshiME6rKWV4LbC__Ov-137" value="" style="group;dashed=1;" parent="MWshiME6rKWV4LbC__Ov-324" vertex="1" connectable="0">
          <mxGeometry x="405.9216438356164" y="567.9259259259259" width="145.78027397260274" height="136.29629629629628" as="geometry" />
        </mxCell>
        <mxCell id="MWshiME6rKWV4LbC__Ov-138" value="" style="edgeStyle=orthogonalEdgeStyle;rounded=0;orthogonalLoop=1;jettySize=auto;html=1;dashed=1;" parent="MWshiME6rKWV4LbC__Ov-137" source="MWshiME6rKWV4LbC__Ov-139" edge="1">
          <mxGeometry relative="1" as="geometry">
            <mxPoint x="-5.926027397260274" y="32.59259259259259" as="targetPoint" />
          </mxGeometry>
        </mxCell>
        <mxCell id="MWshiME6rKWV4LbC__Ov-139" value="" style="rounded=0;whiteSpace=wrap;html=1;dashed=1;" parent="MWshiME6rKWV4LbC__Ov-137" vertex="1">
          <mxGeometry x="23.704109589041096" width="118.52054794520548" height="65.18518518518518" as="geometry" />
        </mxCell>
        <mxCell id="MWshiME6rKWV4LbC__Ov-140" value="" style="group;dashed=1;" parent="MWshiME6rKWV4LbC__Ov-137" vertex="1" connectable="0">
          <mxGeometry x="35.556164383561644" y="94.81481481481481" width="110.22410958904109" height="41.48148148148148" as="geometry" />
        </mxCell>
        <mxCell id="MWshiME6rKWV4LbC__Ov-141" value="" style="rounded=0;whiteSpace=wrap;html=1;dashed=1;" parent="MWshiME6rKWV4LbC__Ov-140" vertex="1">
          <mxGeometry x="-14.222465753424657" y="-5.925925925925926" width="124.44657534246575" height="47.407407407407405" as="geometry" />
        </mxCell>
        <mxCell id="MWshiME6rKWV4LbC__Ov-142" value="" style="pointerEvents=1;verticalLabelPosition=bottom;shadow=0;dashed=1;align=center;fillColor=strokeColor;html=1;verticalAlign=top;strokeWidth=1;shape=mxgraph.electrical.miscellaneous.multicell_battery_tapped;rotation=-180;" parent="MWshiME6rKWV4LbC__Ov-140" vertex="1">
          <mxGeometry x="32.00054794520548" width="32.00054794520548" height="35.55555555555556" as="geometry" />
        </mxCell>
        <mxCell id="MWshiME6rKWV4LbC__Ov-143" value="" style="pointerEvents=1;verticalLabelPosition=bottom;shadow=0;dashed=1;align=center;fillColor=strokeColor;html=1;verticalAlign=top;strokeWidth=1;shape=mxgraph.electrical.miscellaneous.multicell_battery_tapped;rotation=-180;" parent="MWshiME6rKWV4LbC__Ov-140" vertex="1">
          <mxGeometry width="32.00054794520548" height="35.55555555555556" as="geometry" />
        </mxCell>
        <mxCell id="MWshiME6rKWV4LbC__Ov-144" value="" style="pointerEvents=1;verticalLabelPosition=bottom;shadow=0;dashed=1;align=center;fillColor=strokeColor;html=1;verticalAlign=top;strokeWidth=1;shape=mxgraph.electrical.miscellaneous.multicell_battery_tapped;rotation=-180;" parent="MWshiME6rKWV4LbC__Ov-140" vertex="1">
          <mxGeometry x="64.00109589041097" width="32.00054794520548" height="35.55555555555556" as="geometry" />
        </mxCell>
        <mxCell id="MWshiME6rKWV4LbC__Ov-150" value="A" style="verticalLabelPosition=middle;shadow=0;dashed=1;align=center;html=1;verticalAlign=middle;strokeWidth=1;shape=ellipse;aspect=fixed;fontSize=50;" parent="MWshiME6rKWV4LbC__Ov-137" vertex="1">
          <mxGeometry x="41.48219178082192" y="17.77777777777778" width="29.629629629629626" height="29.629629629629626" as="geometry" />
        </mxCell>
        <mxCell id="MWshiME6rKWV4LbC__Ov-151" value="V" style="verticalLabelPosition=middle;shadow=0;dashed=1;align=center;html=1;verticalAlign=middle;strokeWidth=1;shape=ellipse;aspect=fixed;fontSize=50;" parent="MWshiME6rKWV4LbC__Ov-137" vertex="1">
          <mxGeometry x="88.89041095890411" y="17.77777777777778" width="29.629629629629626" height="29.629629629629626" as="geometry" />
        </mxCell>
        <mxCell id="MWshiME6rKWV4LbC__Ov-152" value="" style="group;dashed=1;" parent="MWshiME6rKWV4LbC__Ov-324" vertex="1" connectable="0">
          <mxGeometry x="411.84767123287673" y="573.8518518518518" width="145.78027397260274" height="136.29629629629628" as="geometry" />
        </mxCell>
        <mxCell id="MWshiME6rKWV4LbC__Ov-153" value="" style="edgeStyle=orthogonalEdgeStyle;rounded=0;orthogonalLoop=1;jettySize=auto;html=1;dashed=1;" parent="MWshiME6rKWV4LbC__Ov-152" source="MWshiME6rKWV4LbC__Ov-154" edge="1">
          <mxGeometry relative="1" as="geometry">
            <mxPoint x="-11.852054794520548" y="32.59259259259259" as="targetPoint" />
          </mxGeometry>
        </mxCell>
        <mxCell id="MWshiME6rKWV4LbC__Ov-154" value="" style="rounded=0;whiteSpace=wrap;html=1;dashed=1;" parent="MWshiME6rKWV4LbC__Ov-152" vertex="1">
          <mxGeometry x="23.704109589041096" width="118.52054794520548" height="65.18518518518518" as="geometry" />
        </mxCell>
        <mxCell id="MWshiME6rKWV4LbC__Ov-155" value="" style="group;dashed=1;" parent="MWshiME6rKWV4LbC__Ov-152" vertex="1" connectable="0">
          <mxGeometry x="35.556164383561644" y="94.81481481481481" width="110.22410958904109" height="41.48148148148148" as="geometry" />
        </mxCell>
        <mxCell id="MWshiME6rKWV4LbC__Ov-156" value="" style="rounded=0;whiteSpace=wrap;html=1;dashed=1;" parent="MWshiME6rKWV4LbC__Ov-155" vertex="1">
          <mxGeometry x="-14.222465753424657" y="-5.925925925925926" width="124.44657534246575" height="47.407407407407405" as="geometry" />
        </mxCell>
        <mxCell id="MWshiME6rKWV4LbC__Ov-157" value="" style="pointerEvents=1;verticalLabelPosition=bottom;shadow=0;dashed=1;align=center;fillColor=strokeColor;html=1;verticalAlign=top;strokeWidth=1;shape=mxgraph.electrical.miscellaneous.multicell_battery_tapped;rotation=-180;" parent="MWshiME6rKWV4LbC__Ov-155" vertex="1">
          <mxGeometry x="32.00054794520548" width="32.00054794520548" height="35.55555555555556" as="geometry" />
        </mxCell>
        <mxCell id="MWshiME6rKWV4LbC__Ov-158" value="" style="pointerEvents=1;verticalLabelPosition=bottom;shadow=0;dashed=1;align=center;fillColor=strokeColor;html=1;verticalAlign=top;strokeWidth=1;shape=mxgraph.electrical.miscellaneous.multicell_battery_tapped;rotation=-180;" parent="MWshiME6rKWV4LbC__Ov-155" vertex="1">
          <mxGeometry width="32.00054794520548" height="35.55555555555556" as="geometry" />
        </mxCell>
        <mxCell id="MWshiME6rKWV4LbC__Ov-159" value="" style="pointerEvents=1;verticalLabelPosition=bottom;shadow=0;dashed=1;align=center;fillColor=strokeColor;html=1;verticalAlign=top;strokeWidth=1;shape=mxgraph.electrical.miscellaneous.multicell_battery_tapped;rotation=-180;" parent="MWshiME6rKWV4LbC__Ov-155" vertex="1">
          <mxGeometry x="64.00109589041097" width="32.00054794520548" height="35.55555555555556" as="geometry" />
        </mxCell>
        <mxCell id="MWshiME6rKWV4LbC__Ov-160" value="" style="endArrow=classic;html=1;rounded=0;entryX=1;entryY=0.43;entryDx=0;entryDy=0;entryPerimeter=0;exitX=0.101;exitY=1.022;exitDx=0;exitDy=0;exitPerimeter=0;fillColor=#f8cecc;strokeColor=#b85450;dashed=1;" parent="MWshiME6rKWV4LbC__Ov-152" source="MWshiME6rKWV4LbC__Ov-154" target="MWshiME6rKWV4LbC__Ov-158" edge="1">
          <mxGeometry width="50" height="50" relative="1" as="geometry">
            <mxPoint x="-17.778082191780822" y="112.59259259259258" as="sourcePoint" />
            <mxPoint x="11.852054794520548" y="82.96296296296296" as="targetPoint" />
          </mxGeometry>
        </mxCell>
        <mxCell id="MWshiME6rKWV4LbC__Ov-161" value="" style="endArrow=none;html=1;rounded=0;entryX=1;entryY=0.43;entryDx=0;entryDy=0;entryPerimeter=0;exitX=0.101;exitY=1.022;exitDx=0;exitDy=0;exitPerimeter=0;fillColor=#dae8fc;strokeColor=#6c8ebf;endFill=0;startArrow=classic;startFill=1;dashed=1;" parent="MWshiME6rKWV4LbC__Ov-152" edge="1">
          <mxGeometry width="50" height="50" relative="1" as="geometry">
            <mxPoint x="131.55780821917807" y="65.18518518518518" as="sourcePoint" />
            <mxPoint x="131.55780821917807" y="113.77777777777777" as="targetPoint" />
          </mxGeometry>
        </mxCell>
        <mxCell id="MWshiME6rKWV4LbC__Ov-165" value="A" style="verticalLabelPosition=middle;shadow=0;dashed=1;align=center;html=1;verticalAlign=middle;strokeWidth=1;shape=ellipse;aspect=fixed;fontSize=50;" parent="MWshiME6rKWV4LbC__Ov-152" vertex="1">
          <mxGeometry x="41.48219178082192" y="17.77777777777778" width="29.629629629629626" height="29.629629629629626" as="geometry" />
        </mxCell>
        <mxCell id="MWshiME6rKWV4LbC__Ov-166" value="V" style="verticalLabelPosition=middle;shadow=0;dashed=1;align=center;html=1;verticalAlign=middle;strokeWidth=1;shape=ellipse;aspect=fixed;fontSize=50;" parent="MWshiME6rKWV4LbC__Ov-152" vertex="1">
          <mxGeometry x="88.89041095890411" y="17.77777777777778" width="29.629629629629626" height="29.629629629629626" as="geometry" />
        </mxCell>
        <mxCell id="MWshiME6rKWV4LbC__Ov-167" value="I2C" style="text;html=1;align=center;verticalAlign=middle;resizable=0;points=[];autosize=1;strokeColor=none;fillColor=none;" parent="MWshiME6rKWV4LbC__Ov-152" vertex="1">
          <mxGeometry x="-25.407671232876737" y="-12.221851851851852" width="40" height="30" as="geometry" />
        </mxCell>
        <mxCell id="MWshiME6rKWV4LbC__Ov-168" value="" style="group;dashed=1;" parent="MWshiME6rKWV4LbC__Ov-324" vertex="1" connectable="0">
          <mxGeometry x="417.773698630137" y="579.7777777777778" width="145.78027397260274" height="136.29629629629628" as="geometry" />
        </mxCell>
        <mxCell id="MWshiME6rKWV4LbC__Ov-169" value="" style="edgeStyle=orthogonalEdgeStyle;rounded=0;orthogonalLoop=1;jettySize=auto;html=1;dashed=1;" parent="MWshiME6rKWV4LbC__Ov-168" source="MWshiME6rKWV4LbC__Ov-170" edge="1">
          <mxGeometry relative="1" as="geometry">
            <mxPoint x="-17.778082191780822" y="32.59259259259259" as="targetPoint" />
          </mxGeometry>
        </mxCell>
        <mxCell id="MWshiME6rKWV4LbC__Ov-170" value="" style="rounded=0;whiteSpace=wrap;html=1;dashed=1;" parent="MWshiME6rKWV4LbC__Ov-168" vertex="1">
          <mxGeometry x="23.704109589041096" width="118.52054794520548" height="65.18518518518518" as="geometry" />
        </mxCell>
        <mxCell id="MWshiME6rKWV4LbC__Ov-171" value="" style="group;dashed=1;" parent="MWshiME6rKWV4LbC__Ov-168" vertex="1" connectable="0">
          <mxGeometry x="35.556164383561644" y="94.81481481481481" width="110.22410958904109" height="41.48148148148148" as="geometry" />
        </mxCell>
        <mxCell id="MWshiME6rKWV4LbC__Ov-172" value="" style="rounded=0;whiteSpace=wrap;html=1;dashed=1;" parent="MWshiME6rKWV4LbC__Ov-171" vertex="1">
          <mxGeometry x="-14.222465753424657" y="-5.925925925925926" width="124.44657534246575" height="47.407407407407405" as="geometry" />
        </mxCell>
        <mxCell id="MWshiME6rKWV4LbC__Ov-173" value="" style="pointerEvents=1;verticalLabelPosition=bottom;shadow=0;dashed=1;align=center;fillColor=strokeColor;html=1;verticalAlign=top;strokeWidth=1;shape=mxgraph.electrical.miscellaneous.multicell_battery_tapped;rotation=-180;" parent="MWshiME6rKWV4LbC__Ov-171" vertex="1">
          <mxGeometry x="32.00054794520548" width="32.00054794520548" height="35.55555555555556" as="geometry" />
        </mxCell>
        <mxCell id="MWshiME6rKWV4LbC__Ov-174" value="" style="pointerEvents=1;verticalLabelPosition=bottom;shadow=0;dashed=1;align=center;fillColor=strokeColor;html=1;verticalAlign=top;strokeWidth=1;shape=mxgraph.electrical.miscellaneous.multicell_battery_tapped;rotation=-180;" parent="MWshiME6rKWV4LbC__Ov-171" vertex="1">
          <mxGeometry width="32.00054794520548" height="35.55555555555556" as="geometry" />
        </mxCell>
        <mxCell id="MWshiME6rKWV4LbC__Ov-175" value="" style="pointerEvents=1;verticalLabelPosition=bottom;shadow=0;dashed=1;align=center;fillColor=strokeColor;html=1;verticalAlign=top;strokeWidth=1;shape=mxgraph.electrical.miscellaneous.multicell_battery_tapped;rotation=-180;" parent="MWshiME6rKWV4LbC__Ov-171" vertex="1">
          <mxGeometry x="64.00109589041097" width="32.00054794520548" height="35.55555555555556" as="geometry" />
        </mxCell>
        <mxCell id="MWshiME6rKWV4LbC__Ov-176" value="" style="endArrow=classic;html=1;rounded=0;entryX=1;entryY=0.43;entryDx=0;entryDy=0;entryPerimeter=0;exitX=0.101;exitY=1.022;exitDx=0;exitDy=0;exitPerimeter=0;fillColor=#f8cecc;strokeColor=#b85450;dashed=1;" parent="MWshiME6rKWV4LbC__Ov-168" source="MWshiME6rKWV4LbC__Ov-170" target="MWshiME6rKWV4LbC__Ov-174" edge="1">
          <mxGeometry width="50" height="50" relative="1" as="geometry">
            <mxPoint x="-17.778082191780822" y="112.59259259259258" as="sourcePoint" />
            <mxPoint x="11.852054794520548" y="82.96296296296296" as="targetPoint" />
          </mxGeometry>
        </mxCell>
        <mxCell id="MWshiME6rKWV4LbC__Ov-177" value="" style="endArrow=none;html=1;rounded=0;entryX=1;entryY=0.43;entryDx=0;entryDy=0;entryPerimeter=0;exitX=0.101;exitY=1.022;exitDx=0;exitDy=0;exitPerimeter=0;fillColor=#dae8fc;strokeColor=#6c8ebf;endFill=0;startArrow=classic;startFill=1;dashed=1;" parent="MWshiME6rKWV4LbC__Ov-168" edge="1">
          <mxGeometry width="50" height="50" relative="1" as="geometry">
            <mxPoint x="131.55780821917807" y="65.18518518518518" as="sourcePoint" />
            <mxPoint x="131.55780821917807" y="113.77777777777777" as="targetPoint" />
          </mxGeometry>
        </mxCell>
        <mxCell id="MWshiME6rKWV4LbC__Ov-181" value="A" style="verticalLabelPosition=middle;shadow=0;dashed=1;align=center;html=1;verticalAlign=middle;strokeWidth=1;shape=ellipse;aspect=fixed;fontSize=50;" parent="MWshiME6rKWV4LbC__Ov-168" vertex="1">
          <mxGeometry x="41.48219178082192" y="17.77777777777778" width="29.629629629629626" height="29.629629629629626" as="geometry" />
        </mxCell>
        <mxCell id="MWshiME6rKWV4LbC__Ov-182" value="V" style="verticalLabelPosition=middle;shadow=0;dashed=1;align=center;html=1;verticalAlign=middle;strokeWidth=1;shape=ellipse;aspect=fixed;fontSize=50;" parent="MWshiME6rKWV4LbC__Ov-168" vertex="1">
          <mxGeometry x="88.89041095890411" y="17.77777777777778" width="29.629629629629626" height="29.629629629629626" as="geometry" />
        </mxCell>
        <mxCell id="MWshiME6rKWV4LbC__Ov-198" value="" style="endArrow=classic;startArrow=classic;html=1;rounded=0;" parent="MWshiME6rKWV4LbC__Ov-324" edge="1">
          <mxGeometry width="50" height="50" relative="1" as="geometry">
            <mxPoint x="380" y="312" as="sourcePoint" />
            <mxPoint x="340" y="312" as="targetPoint" />
          </mxGeometry>
        </mxCell>
        <mxCell id="MWshiME6rKWV4LbC__Ov-199" value="I2C" style="text;html=1;align=center;verticalAlign=middle;resizable=0;points=[];autosize=1;strokeColor=none;fillColor=none;" parent="MWshiME6rKWV4LbC__Ov-324" vertex="1">
          <mxGeometry x="340" y="272" width="40" height="30" as="geometry" />
        </mxCell>
        <mxCell id="MWshiME6rKWV4LbC__Ov-200" value="" style="shape=link;html=1;rounded=0;" parent="MWshiME6rKWV4LbC__Ov-324" edge="1">
          <mxGeometry width="100" relative="1" as="geometry">
            <mxPoint x="390" y="142" as="sourcePoint" />
            <mxPoint x="390" y="715.0769230769231" as="targetPoint" />
          </mxGeometry>
        </mxCell>
        <mxCell id="MWshiME6rKWV4LbC__Ov-1" value="" style="endArrow=none;html=1;rounded=0;strokeWidth=2;startArrow=oval;startFill=1;" parent="MWshiME6rKWV4LbC__Ov-324" edge="1">
          <mxGeometry width="50" height="50" relative="1" as="geometry">
            <mxPoint x="80" y="52" as="sourcePoint" />
            <mxPoint x="810" y="773" as="targetPoint" />
            <Array as="points">
              <mxPoint x="800" y="52" />
              <mxPoint x="810" y="52" />
            </Array>
          </mxGeometry>
        </mxCell>
        <mxCell id="MWshiME6rKWV4LbC__Ov-2" value="" style="endArrow=none;html=1;rounded=0;strokeColor=#FF0000;strokeWidth=2;startArrow=oval;startFill=0;" parent="MWshiME6rKWV4LbC__Ov-324" edge="1">
          <mxGeometry width="50" height="50" relative="1" as="geometry">
            <mxPoint x="80" y="62" as="sourcePoint" />
            <mxPoint x="800" y="773.5" as="targetPoint" />
            <Array as="points">
              <mxPoint x="800" y="62" />
            </Array>
          </mxGeometry>
        </mxCell>
        <mxCell id="MWshiME6rKWV4LbC__Ov-203" value="" style="shape=flexArrow;endArrow=classic;html=1;rounded=0;" parent="MWshiME6rKWV4LbC__Ov-324" edge="1">
          <mxGeometry width="50" height="50" relative="1" as="geometry">
            <mxPoint x="790" y="182" as="sourcePoint" />
            <mxPoint x="690" y="182" as="targetPoint" />
          </mxGeometry>
        </mxCell>
        <mxCell id="MWshiME6rKWV4LbC__Ov-208" value="" style="shape=flexArrow;endArrow=classic;html=1;rounded=0;dashed=1;" parent="MWshiME6rKWV4LbC__Ov-324" edge="1">
          <mxGeometry width="50" height="50" relative="1" as="geometry">
            <mxPoint x="770" y="428" as="sourcePoint" />
            <mxPoint x="580" y="428" as="targetPoint" />
          </mxGeometry>
        </mxCell>
        <mxCell id="MWshiME6rKWV4LbC__Ov-209" value="" style="shape=flexArrow;endArrow=classic;html=1;rounded=0;dashed=1;" parent="MWshiME6rKWV4LbC__Ov-324" edge="1">
          <mxGeometry width="50" height="50" relative="1" as="geometry">
            <mxPoint x="780" y="457" as="sourcePoint" />
            <mxPoint x="590" y="457" as="targetPoint" />
          </mxGeometry>
        </mxCell>
        <mxCell id="MWshiME6rKWV4LbC__Ov-210" value="" style="shape=flexArrow;endArrow=classic;html=1;rounded=0;dashed=1;" parent="MWshiME6rKWV4LbC__Ov-324" edge="1">
          <mxGeometry width="50" height="50" relative="1" as="geometry">
            <mxPoint x="790" y="487" as="sourcePoint" />
            <mxPoint x="600" y="487" as="targetPoint" />
          </mxGeometry>
        </mxCell>
        <mxCell id="MWshiME6rKWV4LbC__Ov-211" value="" style="shape=flexArrow;endArrow=classic;html=1;rounded=0;dashed=1;" parent="MWshiME6rKWV4LbC__Ov-324" edge="1">
          <mxGeometry width="50" height="50" relative="1" as="geometry">
            <mxPoint x="770" y="597" as="sourcePoint" />
            <mxPoint x="580" y="597" as="targetPoint" />
          </mxGeometry>
        </mxCell>
        <mxCell id="MWshiME6rKWV4LbC__Ov-212" value="" style="shape=flexArrow;endArrow=classic;html=1;rounded=0;dashed=1;" parent="MWshiME6rKWV4LbC__Ov-324" edge="1">
          <mxGeometry width="50" height="50" relative="1" as="geometry">
            <mxPoint x="780" y="626" as="sourcePoint" />
            <mxPoint x="590" y="626" as="targetPoint" />
          </mxGeometry>
        </mxCell>
        <mxCell id="MWshiME6rKWV4LbC__Ov-213" value="" style="shape=flexArrow;endArrow=classic;html=1;rounded=0;dashed=1;" parent="MWshiME6rKWV4LbC__Ov-324" edge="1">
          <mxGeometry width="50" height="50" relative="1" as="geometry">
            <mxPoint x="790" y="656" as="sourcePoint" />
            <mxPoint x="600" y="656" as="targetPoint" />
          </mxGeometry>
        </mxCell>
        <mxCell id="MWshiME6rKWV4LbC__Ov-104" value="" style="edgeStyle=orthogonalEdgeStyle;rounded=0;orthogonalLoop=1;jettySize=auto;html=1;" parent="MWshiME6rKWV4LbC__Ov-324" source="MWshiME6rKWV4LbC__Ov-105" edge="1">
          <mxGeometry relative="1" as="geometry">
            <mxPoint x="400" y="187" as="targetPoint" />
          </mxGeometry>
        </mxCell>
        <mxCell id="MWshiME6rKWV4LbC__Ov-105" value="" style="rounded=0;whiteSpace=wrap;html=1;fillColor=#d5e8d4;strokeColor=#82b366;" parent="MWshiME6rKWV4LbC__Ov-324" vertex="1">
          <mxGeometry x="480" y="132" width="200" height="110" as="geometry" />
        </mxCell>
        <mxCell id="MWshiME6rKWV4LbC__Ov-106" value="" style="group" parent="MWshiME6rKWV4LbC__Ov-324" vertex="1" connectable="0">
          <mxGeometry x="500" y="292" width="186" height="70" as="geometry" />
        </mxCell>
        <mxCell id="MWshiME6rKWV4LbC__Ov-107" value="" style="rounded=0;whiteSpace=wrap;html=1;" parent="MWshiME6rKWV4LbC__Ov-106" vertex="1">
          <mxGeometry x="-24" y="-10" width="210" height="80" as="geometry" />
        </mxCell>
        <mxCell id="MWshiME6rKWV4LbC__Ov-108" value="" style="pointerEvents=1;verticalLabelPosition=bottom;shadow=0;dashed=0;align=center;fillColor=strokeColor;html=1;verticalAlign=top;strokeWidth=1;shape=mxgraph.electrical.miscellaneous.multicell_battery_tapped;rotation=-180;" parent="MWshiME6rKWV4LbC__Ov-106" vertex="1">
          <mxGeometry x="54" width="54" height="60" as="geometry" />
        </mxCell>
        <mxCell id="MWshiME6rKWV4LbC__Ov-109" value="" style="pointerEvents=1;verticalLabelPosition=bottom;shadow=0;dashed=0;align=center;fillColor=strokeColor;html=1;verticalAlign=top;strokeWidth=1;shape=mxgraph.electrical.miscellaneous.multicell_battery_tapped;rotation=-180;" parent="MWshiME6rKWV4LbC__Ov-106" vertex="1">
          <mxGeometry width="54" height="60" as="geometry" />
        </mxCell>
        <mxCell id="MWshiME6rKWV4LbC__Ov-110" value="" style="pointerEvents=1;verticalLabelPosition=bottom;shadow=0;dashed=0;align=center;fillColor=strokeColor;html=1;verticalAlign=top;strokeWidth=1;shape=mxgraph.electrical.miscellaneous.multicell_battery_tapped;rotation=-180;" parent="MWshiME6rKWV4LbC__Ov-106" vertex="1">
          <mxGeometry x="108" width="54" height="60" as="geometry" />
        </mxCell>
        <mxCell id="MWshiME6rKWV4LbC__Ov-111" value="" style="endArrow=classic;html=1;rounded=0;entryX=1;entryY=0.43;entryDx=0;entryDy=0;entryPerimeter=0;exitX=0.101;exitY=1.022;exitDx=0;exitDy=0;exitPerimeter=0;fillColor=#f8cecc;strokeColor=#b85450;" parent="MWshiME6rKWV4LbC__Ov-324" source="MWshiME6rKWV4LbC__Ov-105" target="MWshiME6rKWV4LbC__Ov-109" edge="1">
          <mxGeometry width="50" height="50" relative="1" as="geometry">
            <mxPoint x="410" y="322" as="sourcePoint" />
            <mxPoint x="460" y="272" as="targetPoint" />
          </mxGeometry>
        </mxCell>
        <mxCell id="MWshiME6rKWV4LbC__Ov-112" value="" style="endArrow=none;html=1;rounded=0;entryX=1;entryY=0.43;entryDx=0;entryDy=0;entryPerimeter=0;exitX=0.101;exitY=1.022;exitDx=0;exitDy=0;exitPerimeter=0;fillColor=#dae8fc;strokeColor=#6c8ebf;endFill=0;startArrow=classic;startFill=1;" parent="MWshiME6rKWV4LbC__Ov-324" edge="1">
          <mxGeometry width="50" height="50" relative="1" as="geometry">
            <mxPoint x="662" y="242" as="sourcePoint" />
            <mxPoint x="662" y="324" as="targetPoint" />
          </mxGeometry>
        </mxCell>
        <mxCell id="MWshiME6rKWV4LbC__Ov-116" value="A" style="verticalLabelPosition=middle;shadow=0;dashed=0;align=center;html=1;verticalAlign=middle;strokeWidth=1;shape=ellipse;aspect=fixed;fontSize=50;" parent="MWshiME6rKWV4LbC__Ov-324" vertex="1">
          <mxGeometry x="510" y="162" width="60" height="60" as="geometry" />
        </mxCell>
        <mxCell id="MWshiME6rKWV4LbC__Ov-117" value="V" style="verticalLabelPosition=middle;shadow=0;dashed=0;align=center;html=1;verticalAlign=middle;strokeWidth=1;shape=ellipse;aspect=fixed;fontSize=50;" parent="MWshiME6rKWV4LbC__Ov-324" vertex="1">
          <mxGeometry x="590" y="162" width="60" height="60" as="geometry" />
        </mxCell>
        <mxCell id="MWshiME6rKWV4LbC__Ov-42" value="" style="group;dashed=1;" parent="MWshiME6rKWV4LbC__Ov-324" vertex="1" connectable="0">
          <mxGeometry x="403.55561643835614" y="392" width="145.78027397260274" height="136.29629629629628" as="geometry" />
        </mxCell>
        <mxCell id="MWshiME6rKWV4LbC__Ov-41" value="" style="edgeStyle=orthogonalEdgeStyle;rounded=0;orthogonalLoop=1;jettySize=auto;html=1;dashed=1;" parent="MWshiME6rKWV4LbC__Ov-42" source="MWshiME6rKWV4LbC__Ov-8" edge="1">
          <mxGeometry relative="1" as="geometry">
            <mxPoint y="32.59259259259259" as="targetPoint" />
          </mxGeometry>
        </mxCell>
        <mxCell id="MWshiME6rKWV4LbC__Ov-8" value="" style="rounded=0;whiteSpace=wrap;html=1;dashed=1;" parent="MWshiME6rKWV4LbC__Ov-42" vertex="1">
          <mxGeometry x="23.704109589041096" width="118.52054794520548" height="65.18518518518518" as="geometry" />
        </mxCell>
        <mxCell id="MWshiME6rKWV4LbC__Ov-12" value="" style="group;dashed=1;" parent="MWshiME6rKWV4LbC__Ov-42" vertex="1" connectable="0">
          <mxGeometry x="35.556164383561644" y="94.81481481481481" width="110.22410958904109" height="41.48148148148148" as="geometry" />
        </mxCell>
        <mxCell id="MWshiME6rKWV4LbC__Ov-35" value="" style="rounded=0;whiteSpace=wrap;html=1;dashed=1;" parent="MWshiME6rKWV4LbC__Ov-12" vertex="1">
          <mxGeometry x="-14.222465753424657" y="-5.925925925925926" width="124.44657534246575" height="47.407407407407405" as="geometry" />
        </mxCell>
        <mxCell id="MWshiME6rKWV4LbC__Ov-9" value="" style="pointerEvents=1;verticalLabelPosition=bottom;shadow=0;dashed=1;align=center;fillColor=strokeColor;html=1;verticalAlign=top;strokeWidth=1;shape=mxgraph.electrical.miscellaneous.multicell_battery_tapped;rotation=-180;" parent="MWshiME6rKWV4LbC__Ov-12" vertex="1">
          <mxGeometry x="32.00054794520548" width="32.00054794520548" height="35.55555555555556" as="geometry" />
        </mxCell>
        <mxCell id="MWshiME6rKWV4LbC__Ov-10" value="" style="pointerEvents=1;verticalLabelPosition=bottom;shadow=0;dashed=1;align=center;fillColor=strokeColor;html=1;verticalAlign=top;strokeWidth=1;shape=mxgraph.electrical.miscellaneous.multicell_battery_tapped;rotation=-180;" parent="MWshiME6rKWV4LbC__Ov-12" vertex="1">
          <mxGeometry width="32.00054794520548" height="35.55555555555556" as="geometry" />
        </mxCell>
        <mxCell id="MWshiME6rKWV4LbC__Ov-11" value="" style="pointerEvents=1;verticalLabelPosition=bottom;shadow=0;dashed=1;align=center;fillColor=strokeColor;html=1;verticalAlign=top;strokeWidth=1;shape=mxgraph.electrical.miscellaneous.multicell_battery_tapped;rotation=-180;" parent="MWshiME6rKWV4LbC__Ov-12" vertex="1">
          <mxGeometry x="64.00109589041097" width="32.00054794520548" height="35.55555555555556" as="geometry" />
        </mxCell>
        <mxCell id="MWshiME6rKWV4LbC__Ov-13" value="" style="endArrow=classic;html=1;rounded=0;entryX=1;entryY=0.43;entryDx=0;entryDy=0;entryPerimeter=0;exitX=0.101;exitY=1.022;exitDx=0;exitDy=0;exitPerimeter=0;fillColor=#f8cecc;strokeColor=#b85450;dashed=1;" parent="MWshiME6rKWV4LbC__Ov-42" source="MWshiME6rKWV4LbC__Ov-8" target="MWshiME6rKWV4LbC__Ov-10" edge="1">
          <mxGeometry width="50" height="50" relative="1" as="geometry">
            <mxPoint x="-17.778082191780822" y="112.59259259259258" as="sourcePoint" />
            <mxPoint x="11.852054794520548" y="82.96296296296296" as="targetPoint" />
          </mxGeometry>
        </mxCell>
        <mxCell id="MWshiME6rKWV4LbC__Ov-14" value="" style="endArrow=none;html=1;rounded=0;entryX=1;entryY=0.43;entryDx=0;entryDy=0;entryPerimeter=0;exitX=0.101;exitY=1.022;exitDx=0;exitDy=0;exitPerimeter=0;fillColor=#dae8fc;strokeColor=#6c8ebf;endFill=0;startArrow=classic;startFill=1;dashed=1;" parent="MWshiME6rKWV4LbC__Ov-42" edge="1">
          <mxGeometry width="50" height="50" relative="1" as="geometry">
            <mxPoint x="131.55780821917807" y="65.18518518518518" as="sourcePoint" />
            <mxPoint x="131.55780821917807" y="113.77777777777777" as="targetPoint" />
          </mxGeometry>
        </mxCell>
        <mxCell id="MWshiME6rKWV4LbC__Ov-22" value="A" style="verticalLabelPosition=middle;shadow=0;dashed=1;align=center;html=1;verticalAlign=middle;strokeWidth=1;shape=ellipse;aspect=fixed;fontSize=50;" parent="MWshiME6rKWV4LbC__Ov-42" vertex="1">
          <mxGeometry x="41.48219178082192" y="17.77777777777778" width="29.629629629629626" height="29.629629629629626" as="geometry" />
        </mxCell>
        <mxCell id="MWshiME6rKWV4LbC__Ov-23" value="V" style="verticalLabelPosition=middle;shadow=0;dashed=1;align=center;html=1;verticalAlign=middle;strokeWidth=1;shape=ellipse;aspect=fixed;fontSize=50;" parent="MWshiME6rKWV4LbC__Ov-42" vertex="1">
          <mxGeometry x="88.89041095890411" y="17.77777777777778" width="29.629629629629626" height="29.629629629629626" as="geometry" />
        </mxCell>
        <mxCell id="MWshiME6rKWV4LbC__Ov-43" value="" style="group;dashed=1;" parent="MWshiME6rKWV4LbC__Ov-324" vertex="1" connectable="0">
          <mxGeometry x="409.4816438356164" y="397.92592592592587" width="145.78027397260274" height="136.29629629629628" as="geometry" />
        </mxCell>
        <mxCell id="MWshiME6rKWV4LbC__Ov-44" value="" style="edgeStyle=orthogonalEdgeStyle;rounded=0;orthogonalLoop=1;jettySize=auto;html=1;dashed=1;" parent="MWshiME6rKWV4LbC__Ov-43" source="MWshiME6rKWV4LbC__Ov-45" edge="1">
          <mxGeometry relative="1" as="geometry">
            <mxPoint x="-5.926027397260274" y="32.59259259259259" as="targetPoint" />
          </mxGeometry>
        </mxCell>
        <mxCell id="MWshiME6rKWV4LbC__Ov-45" value="" style="rounded=0;whiteSpace=wrap;html=1;dashed=1;" parent="MWshiME6rKWV4LbC__Ov-43" vertex="1">
          <mxGeometry x="23.704109589041096" width="118.52054794520548" height="65.18518518518518" as="geometry" />
        </mxCell>
        <mxCell id="MWshiME6rKWV4LbC__Ov-46" value="" style="group;dashed=1;" parent="MWshiME6rKWV4LbC__Ov-43" vertex="1" connectable="0">
          <mxGeometry x="35.556164383561644" y="94.81481481481481" width="110.22410958904109" height="41.48148148148148" as="geometry" />
        </mxCell>
        <mxCell id="MWshiME6rKWV4LbC__Ov-47" value="" style="rounded=0;whiteSpace=wrap;html=1;dashed=1;" parent="MWshiME6rKWV4LbC__Ov-46" vertex="1">
          <mxGeometry x="-14.222465753424657" y="-5.925925925925926" width="124.44657534246575" height="47.407407407407405" as="geometry" />
        </mxCell>
        <mxCell id="MWshiME6rKWV4LbC__Ov-48" value="" style="pointerEvents=1;verticalLabelPosition=bottom;shadow=0;dashed=1;align=center;fillColor=strokeColor;html=1;verticalAlign=top;strokeWidth=1;shape=mxgraph.electrical.miscellaneous.multicell_battery_tapped;rotation=-180;" parent="MWshiME6rKWV4LbC__Ov-46" vertex="1">
          <mxGeometry x="32.00054794520548" width="32.00054794520548" height="35.55555555555556" as="geometry" />
        </mxCell>
        <mxCell id="MWshiME6rKWV4LbC__Ov-49" value="" style="pointerEvents=1;verticalLabelPosition=bottom;shadow=0;dashed=1;align=center;fillColor=strokeColor;html=1;verticalAlign=top;strokeWidth=1;shape=mxgraph.electrical.miscellaneous.multicell_battery_tapped;rotation=-180;" parent="MWshiME6rKWV4LbC__Ov-46" vertex="1">
          <mxGeometry width="32.00054794520548" height="35.55555555555556" as="geometry" />
        </mxCell>
        <mxCell id="MWshiME6rKWV4LbC__Ov-50" value="" style="pointerEvents=1;verticalLabelPosition=bottom;shadow=0;dashed=1;align=center;fillColor=strokeColor;html=1;verticalAlign=top;strokeWidth=1;shape=mxgraph.electrical.miscellaneous.multicell_battery_tapped;rotation=-180;" parent="MWshiME6rKWV4LbC__Ov-46" vertex="1">
          <mxGeometry x="64.00109589041097" width="32.00054794520548" height="35.55555555555556" as="geometry" />
        </mxCell>
        <mxCell id="MWshiME6rKWV4LbC__Ov-51" value="" style="endArrow=classic;html=1;rounded=0;entryX=1;entryY=0.43;entryDx=0;entryDy=0;entryPerimeter=0;exitX=0.101;exitY=1.022;exitDx=0;exitDy=0;exitPerimeter=0;fillColor=#f8cecc;strokeColor=#b85450;dashed=1;" parent="MWshiME6rKWV4LbC__Ov-43" source="MWshiME6rKWV4LbC__Ov-45" target="MWshiME6rKWV4LbC__Ov-49" edge="1">
          <mxGeometry width="50" height="50" relative="1" as="geometry">
            <mxPoint x="-17.778082191780822" y="112.59259259259258" as="sourcePoint" />
            <mxPoint x="11.852054794520548" y="82.96296296296296" as="targetPoint" />
          </mxGeometry>
        </mxCell>
        <mxCell id="MWshiME6rKWV4LbC__Ov-56" value="A" style="verticalLabelPosition=middle;shadow=0;dashed=1;align=center;html=1;verticalAlign=middle;strokeWidth=1;shape=ellipse;aspect=fixed;fontSize=50;" parent="MWshiME6rKWV4LbC__Ov-43" vertex="1">
          <mxGeometry x="41.48219178082192" y="17.77777777777778" width="29.629629629629626" height="29.629629629629626" as="geometry" />
        </mxCell>
        <mxCell id="MWshiME6rKWV4LbC__Ov-57" value="V" style="verticalLabelPosition=middle;shadow=0;dashed=1;align=center;html=1;verticalAlign=middle;strokeWidth=1;shape=ellipse;aspect=fixed;fontSize=50;" parent="MWshiME6rKWV4LbC__Ov-43" vertex="1">
          <mxGeometry x="88.89041095890411" y="17.77777777777778" width="29.629629629629626" height="29.629629629629626" as="geometry" />
        </mxCell>
        <mxCell id="MWshiME6rKWV4LbC__Ov-58" value="" style="group;dashed=1;" parent="MWshiME6rKWV4LbC__Ov-324" vertex="1" connectable="0">
          <mxGeometry x="415.40767123287674" y="403.85185185185185" width="145.78027397260274" height="136.29629629629628" as="geometry" />
        </mxCell>
        <mxCell id="MWshiME6rKWV4LbC__Ov-59" value="" style="edgeStyle=orthogonalEdgeStyle;rounded=0;orthogonalLoop=1;jettySize=auto;html=1;dashed=1;" parent="MWshiME6rKWV4LbC__Ov-58" source="MWshiME6rKWV4LbC__Ov-60" edge="1">
          <mxGeometry relative="1" as="geometry">
            <mxPoint x="-11.852054794520548" y="32.59259259259259" as="targetPoint" />
          </mxGeometry>
        </mxCell>
        <mxCell id="MWshiME6rKWV4LbC__Ov-60" value="" style="rounded=0;whiteSpace=wrap;html=1;dashed=1;" parent="MWshiME6rKWV4LbC__Ov-58" vertex="1">
          <mxGeometry x="23.704109589041096" width="118.52054794520548" height="65.18518518518518" as="geometry" />
        </mxCell>
        <mxCell id="MWshiME6rKWV4LbC__Ov-61" value="" style="group;dashed=1;" parent="MWshiME6rKWV4LbC__Ov-58" vertex="1" connectable="0">
          <mxGeometry x="35.556164383561644" y="94.81481481481481" width="110.22410958904109" height="41.48148148148148" as="geometry" />
        </mxCell>
        <mxCell id="MWshiME6rKWV4LbC__Ov-62" value="" style="rounded=0;whiteSpace=wrap;html=1;dashed=1;" parent="MWshiME6rKWV4LbC__Ov-61" vertex="1">
          <mxGeometry x="-14.222465753424657" y="-5.925925925925926" width="124.44657534246575" height="47.407407407407405" as="geometry" />
        </mxCell>
        <mxCell id="MWshiME6rKWV4LbC__Ov-63" value="" style="pointerEvents=1;verticalLabelPosition=bottom;shadow=0;dashed=1;align=center;fillColor=strokeColor;html=1;verticalAlign=top;strokeWidth=1;shape=mxgraph.electrical.miscellaneous.multicell_battery_tapped;rotation=-180;" parent="MWshiME6rKWV4LbC__Ov-61" vertex="1">
          <mxGeometry x="32.00054794520548" width="32.00054794520548" height="35.55555555555556" as="geometry" />
        </mxCell>
        <mxCell id="MWshiME6rKWV4LbC__Ov-64" value="" style="pointerEvents=1;verticalLabelPosition=bottom;shadow=0;dashed=1;align=center;fillColor=strokeColor;html=1;verticalAlign=top;strokeWidth=1;shape=mxgraph.electrical.miscellaneous.multicell_battery_tapped;rotation=-180;" parent="MWshiME6rKWV4LbC__Ov-61" vertex="1">
          <mxGeometry width="32.00054794520548" height="35.55555555555556" as="geometry" />
        </mxCell>
        <mxCell id="MWshiME6rKWV4LbC__Ov-65" value="" style="pointerEvents=1;verticalLabelPosition=bottom;shadow=0;dashed=1;align=center;fillColor=strokeColor;html=1;verticalAlign=top;strokeWidth=1;shape=mxgraph.electrical.miscellaneous.multicell_battery_tapped;rotation=-180;" parent="MWshiME6rKWV4LbC__Ov-61" vertex="1">
          <mxGeometry x="64.00109589041097" width="32.00054794520548" height="35.55555555555556" as="geometry" />
        </mxCell>
        <mxCell id="MWshiME6rKWV4LbC__Ov-66" value="" style="endArrow=classic;html=1;rounded=0;entryX=1;entryY=0.43;entryDx=0;entryDy=0;entryPerimeter=0;exitX=0.101;exitY=1.022;exitDx=0;exitDy=0;exitPerimeter=0;fillColor=#f8cecc;strokeColor=#b85450;dashed=1;" parent="MWshiME6rKWV4LbC__Ov-58" source="MWshiME6rKWV4LbC__Ov-60" target="MWshiME6rKWV4LbC__Ov-64" edge="1">
          <mxGeometry width="50" height="50" relative="1" as="geometry">
            <mxPoint x="-17.778082191780822" y="112.59259259259258" as="sourcePoint" />
            <mxPoint x="11.852054794520548" y="82.96296296296296" as="targetPoint" />
          </mxGeometry>
        </mxCell>
        <mxCell id="MWshiME6rKWV4LbC__Ov-67" value="" style="endArrow=none;html=1;rounded=0;entryX=1;entryY=0.43;entryDx=0;entryDy=0;entryPerimeter=0;exitX=0.101;exitY=1.022;exitDx=0;exitDy=0;exitPerimeter=0;fillColor=#dae8fc;strokeColor=#6c8ebf;endFill=0;startArrow=classic;startFill=1;dashed=1;" parent="MWshiME6rKWV4LbC__Ov-58" edge="1">
          <mxGeometry width="50" height="50" relative="1" as="geometry">
            <mxPoint x="131.55780821917807" y="65.18518518518518" as="sourcePoint" />
            <mxPoint x="131.55780821917807" y="113.77777777777777" as="targetPoint" />
          </mxGeometry>
        </mxCell>
        <mxCell id="MWshiME6rKWV4LbC__Ov-71" value="A" style="verticalLabelPosition=middle;shadow=0;dashed=1;align=center;html=1;verticalAlign=middle;strokeWidth=1;shape=ellipse;aspect=fixed;fontSize=50;" parent="MWshiME6rKWV4LbC__Ov-58" vertex="1">
          <mxGeometry x="41.48219178082192" y="17.77777777777778" width="29.629629629629626" height="29.629629629629626" as="geometry" />
        </mxCell>
        <mxCell id="MWshiME6rKWV4LbC__Ov-72" value="V" style="verticalLabelPosition=middle;shadow=0;dashed=1;align=center;html=1;verticalAlign=middle;strokeWidth=1;shape=ellipse;aspect=fixed;fontSize=50;" parent="MWshiME6rKWV4LbC__Ov-58" vertex="1">
          <mxGeometry x="88.89041095890411" y="17.77777777777778" width="29.629629629629626" height="29.629629629629626" as="geometry" />
        </mxCell>
        <mxCell id="MWshiME6rKWV4LbC__Ov-121" value="I2C" style="text;html=1;align=center;verticalAlign=middle;resizable=0;points=[];autosize=1;strokeColor=none;fillColor=none;" parent="MWshiME6rKWV4LbC__Ov-58" vertex="1">
          <mxGeometry x="-25.407671232876737" y="-12.221851851851852" width="40" height="30" as="geometry" />
        </mxCell>
        <mxCell id="MWshiME6rKWV4LbC__Ov-73" value="" style="group;dashed=1;" parent="MWshiME6rKWV4LbC__Ov-324" vertex="1" connectable="0">
          <mxGeometry x="421.333698630137" y="409.7777777777777" width="145.78027397260274" height="136.29629629629628" as="geometry" />
        </mxCell>
        <mxCell id="MWshiME6rKWV4LbC__Ov-74" value="" style="edgeStyle=orthogonalEdgeStyle;rounded=0;orthogonalLoop=1;jettySize=auto;html=1;dashed=1;" parent="MWshiME6rKWV4LbC__Ov-73" source="MWshiME6rKWV4LbC__Ov-75" edge="1">
          <mxGeometry relative="1" as="geometry">
            <mxPoint x="-17.778082191780822" y="32.59259259259259" as="targetPoint" />
          </mxGeometry>
        </mxCell>
        <mxCell id="MWshiME6rKWV4LbC__Ov-75" value="" style="rounded=0;whiteSpace=wrap;html=1;dashed=1;" parent="MWshiME6rKWV4LbC__Ov-73" vertex="1">
          <mxGeometry x="23.704109589041096" width="118.52054794520548" height="65.18518518518518" as="geometry" />
        </mxCell>
        <mxCell id="MWshiME6rKWV4LbC__Ov-76" value="" style="group;dashed=1;" parent="MWshiME6rKWV4LbC__Ov-73" vertex="1" connectable="0">
          <mxGeometry x="35.556164383561644" y="94.81481481481481" width="110.22410958904109" height="41.48148148148148" as="geometry" />
        </mxCell>
        <mxCell id="MWshiME6rKWV4LbC__Ov-77" value="" style="rounded=0;whiteSpace=wrap;html=1;dashed=1;" parent="MWshiME6rKWV4LbC__Ov-76" vertex="1">
          <mxGeometry x="-14.222465753424657" y="-5.925925925925926" width="124.44657534246575" height="47.407407407407405" as="geometry" />
        </mxCell>
        <mxCell id="MWshiME6rKWV4LbC__Ov-78" value="" style="pointerEvents=1;verticalLabelPosition=bottom;shadow=0;dashed=1;align=center;fillColor=strokeColor;html=1;verticalAlign=top;strokeWidth=1;shape=mxgraph.electrical.miscellaneous.multicell_battery_tapped;rotation=-180;" parent="MWshiME6rKWV4LbC__Ov-76" vertex="1">
          <mxGeometry x="32.00054794520548" width="32.00054794520548" height="35.55555555555556" as="geometry" />
        </mxCell>
        <mxCell id="MWshiME6rKWV4LbC__Ov-79" value="" style="pointerEvents=1;verticalLabelPosition=bottom;shadow=0;dashed=1;align=center;fillColor=strokeColor;html=1;verticalAlign=top;strokeWidth=1;shape=mxgraph.electrical.miscellaneous.multicell_battery_tapped;rotation=-180;" parent="MWshiME6rKWV4LbC__Ov-76" vertex="1">
          <mxGeometry width="32.00054794520548" height="35.55555555555556" as="geometry" />
        </mxCell>
        <mxCell id="MWshiME6rKWV4LbC__Ov-80" value="" style="pointerEvents=1;verticalLabelPosition=bottom;shadow=0;dashed=1;align=center;fillColor=strokeColor;html=1;verticalAlign=top;strokeWidth=1;shape=mxgraph.electrical.miscellaneous.multicell_battery_tapped;rotation=-180;" parent="MWshiME6rKWV4LbC__Ov-76" vertex="1">
          <mxGeometry x="64.00109589041097" width="32.00054794520548" height="35.55555555555556" as="geometry" />
        </mxCell>
        <mxCell id="MWshiME6rKWV4LbC__Ov-81" value="" style="endArrow=classic;html=1;rounded=0;entryX=1;entryY=0.43;entryDx=0;entryDy=0;entryPerimeter=0;exitX=0.101;exitY=1.022;exitDx=0;exitDy=0;exitPerimeter=0;fillColor=#f8cecc;strokeColor=#b85450;dashed=1;" parent="MWshiME6rKWV4LbC__Ov-73" source="MWshiME6rKWV4LbC__Ov-75" target="MWshiME6rKWV4LbC__Ov-79" edge="1">
          <mxGeometry width="50" height="50" relative="1" as="geometry">
            <mxPoint x="-17.778082191780822" y="112.59259259259258" as="sourcePoint" />
            <mxPoint x="11.852054794520548" y="82.96296296296296" as="targetPoint" />
          </mxGeometry>
        </mxCell>
        <mxCell id="MWshiME6rKWV4LbC__Ov-82" value="" style="endArrow=none;html=1;rounded=0;entryX=1;entryY=0.43;entryDx=0;entryDy=0;entryPerimeter=0;exitX=0.101;exitY=1.022;exitDx=0;exitDy=0;exitPerimeter=0;fillColor=#dae8fc;strokeColor=#6c8ebf;endFill=0;startArrow=classic;startFill=1;dashed=1;" parent="MWshiME6rKWV4LbC__Ov-73" edge="1">
          <mxGeometry width="50" height="50" relative="1" as="geometry">
            <mxPoint x="131.55780821917807" y="65.18518518518518" as="sourcePoint" />
            <mxPoint x="131.55780821917807" y="113.77777777777777" as="targetPoint" />
          </mxGeometry>
        </mxCell>
        <mxCell id="MWshiME6rKWV4LbC__Ov-86" value="A" style="verticalLabelPosition=middle;shadow=0;dashed=1;align=center;html=1;verticalAlign=middle;strokeWidth=1;shape=ellipse;aspect=fixed;fontSize=50;" parent="MWshiME6rKWV4LbC__Ov-73" vertex="1">
          <mxGeometry x="41.48219178082192" y="17.77777777777778" width="29.629629629629626" height="29.629629629629626" as="geometry" />
        </mxCell>
        <mxCell id="MWshiME6rKWV4LbC__Ov-87" value="V" style="verticalLabelPosition=middle;shadow=0;dashed=1;align=center;html=1;verticalAlign=middle;strokeWidth=1;shape=ellipse;aspect=fixed;fontSize=50;" parent="MWshiME6rKWV4LbC__Ov-73" vertex="1">
          <mxGeometry x="88.89041095890411" y="17.77777777777778" width="29.629629629629626" height="29.629629629629626" as="geometry" />
        </mxCell>
        <mxCell id="MWshiME6rKWV4LbC__Ov-88" value="" style="group;fontStyle=4;dashed=1;" parent="MWshiME6rKWV4LbC__Ov-324" vertex="1" connectable="0">
          <mxGeometry x="427.2597260273973" y="415.7037037037037" width="145.78027397260274" height="136.29629629629628" as="geometry" />
        </mxCell>
        <mxCell id="MWshiME6rKWV4LbC__Ov-89" value="" style="edgeStyle=orthogonalEdgeStyle;rounded=0;orthogonalLoop=1;jettySize=auto;html=1;dashed=1;" parent="MWshiME6rKWV4LbC__Ov-88" source="MWshiME6rKWV4LbC__Ov-90" edge="1">
          <mxGeometry relative="1" as="geometry">
            <mxPoint x="-23.704109589041096" y="32.59259259259259" as="targetPoint" />
          </mxGeometry>
        </mxCell>
        <mxCell id="MWshiME6rKWV4LbC__Ov-90" value="" style="rounded=0;whiteSpace=wrap;html=1;dashed=1;" parent="MWshiME6rKWV4LbC__Ov-88" vertex="1">
          <mxGeometry x="23.704109589041096" width="118.52054794520548" height="65.18518518518518" as="geometry" />
        </mxCell>
        <mxCell id="MWshiME6rKWV4LbC__Ov-91" value="" style="group;dashed=1;" parent="MWshiME6rKWV4LbC__Ov-88" vertex="1" connectable="0">
          <mxGeometry x="35.556164383561644" y="94.81481481481481" width="110.22410958904109" height="41.48148148148148" as="geometry" />
        </mxCell>
        <mxCell id="MWshiME6rKWV4LbC__Ov-92" value="" style="rounded=0;whiteSpace=wrap;html=1;dashed=1;" parent="MWshiME6rKWV4LbC__Ov-91" vertex="1">
          <mxGeometry x="-14.222465753424657" y="-5.925925925925926" width="124.44657534246575" height="47.407407407407405" as="geometry" />
        </mxCell>
        <mxCell id="MWshiME6rKWV4LbC__Ov-93" value="" style="pointerEvents=1;verticalLabelPosition=bottom;shadow=0;align=center;fillColor=strokeColor;html=1;verticalAlign=top;strokeWidth=1;shape=mxgraph.electrical.miscellaneous.multicell_battery_tapped;rotation=-180;" parent="MWshiME6rKWV4LbC__Ov-91" vertex="1">
          <mxGeometry x="32.00054794520548" width="32.00054794520548" height="35.55555555555556" as="geometry" />
        </mxCell>
        <mxCell id="MWshiME6rKWV4LbC__Ov-94" value="" style="pointerEvents=1;verticalLabelPosition=bottom;shadow=0;align=center;fillColor=strokeColor;html=1;verticalAlign=top;strokeWidth=1;shape=mxgraph.electrical.miscellaneous.multicell_battery_tapped;rotation=-180;" parent="MWshiME6rKWV4LbC__Ov-91" vertex="1">
          <mxGeometry width="32.00054794520548" height="35.55555555555556" as="geometry" />
        </mxCell>
        <mxCell id="MWshiME6rKWV4LbC__Ov-95" value="" style="pointerEvents=1;verticalLabelPosition=bottom;shadow=0;align=center;fillColor=strokeColor;html=1;verticalAlign=top;strokeWidth=1;shape=mxgraph.electrical.miscellaneous.multicell_battery_tapped;rotation=-180;" parent="MWshiME6rKWV4LbC__Ov-91" vertex="1">
          <mxGeometry x="64.00109589041097" width="32.00054794520548" height="35.55555555555556" as="geometry" />
        </mxCell>
        <mxCell id="MWshiME6rKWV4LbC__Ov-96" value="" style="endArrow=classic;html=1;rounded=0;entryX=1;entryY=0.43;entryDx=0;entryDy=0;entryPerimeter=0;exitX=0.101;exitY=1.022;exitDx=0;exitDy=0;exitPerimeter=0;fillColor=#f8cecc;strokeColor=#b85450;dashed=1;" parent="MWshiME6rKWV4LbC__Ov-88" source="MWshiME6rKWV4LbC__Ov-90" target="MWshiME6rKWV4LbC__Ov-94" edge="1">
          <mxGeometry width="50" height="50" relative="1" as="geometry">
            <mxPoint x="-17.778082191780822" y="112.59259259259258" as="sourcePoint" />
            <mxPoint x="11.852054794520548" y="82.96296296296296" as="targetPoint" />
          </mxGeometry>
        </mxCell>
        <mxCell id="MWshiME6rKWV4LbC__Ov-97" value="" style="endArrow=none;html=1;rounded=0;entryX=1;entryY=0.43;entryDx=0;entryDy=0;entryPerimeter=0;exitX=0.101;exitY=1.022;exitDx=0;exitDy=0;exitPerimeter=0;fillColor=#dae8fc;strokeColor=#6c8ebf;endFill=0;startArrow=classic;startFill=1;dashed=1;" parent="MWshiME6rKWV4LbC__Ov-88" edge="1">
          <mxGeometry width="50" height="50" relative="1" as="geometry">
            <mxPoint x="131.55780821917807" y="65.18518518518518" as="sourcePoint" />
            <mxPoint x="131.55780821917807" y="113.77777777777777" as="targetPoint" />
          </mxGeometry>
        </mxCell>
        <mxCell id="MWshiME6rKWV4LbC__Ov-101" value="A" style="verticalLabelPosition=middle;shadow=0;dashed=1;align=center;html=1;verticalAlign=middle;strokeWidth=1;shape=ellipse;aspect=fixed;fontSize=50;" parent="MWshiME6rKWV4LbC__Ov-88" vertex="1">
          <mxGeometry x="41.48219178082192" y="17.77777777777778" width="29.629629629629626" height="29.629629629629626" as="geometry" />
        </mxCell>
        <mxCell id="MWshiME6rKWV4LbC__Ov-102" value="V" style="verticalLabelPosition=middle;shadow=0;dashed=1;align=center;html=1;verticalAlign=middle;strokeWidth=1;shape=ellipse;aspect=fixed;fontSize=50;" parent="MWshiME6rKWV4LbC__Ov-88" vertex="1">
          <mxGeometry x="88.89041095890411" y="17.77777777777778" width="29.629629629629626" height="29.629629629629626" as="geometry" />
        </mxCell>
        <mxCell id="MWshiME6rKWV4LbC__Ov-184" value="" style="edgeStyle=orthogonalEdgeStyle;rounded=0;orthogonalLoop=1;jettySize=auto;html=1;dashed=1;" parent="MWshiME6rKWV4LbC__Ov-324" source="MWshiME6rKWV4LbC__Ov-185" edge="1">
          <mxGeometry relative="1" as="geometry">
            <mxPoint x="399.9956164383562" y="618.2962962962963" as="targetPoint" />
          </mxGeometry>
        </mxCell>
        <mxCell id="MWshiME6rKWV4LbC__Ov-185" value="" style="rounded=0;whiteSpace=wrap;html=1;dashed=1;" parent="MWshiME6rKWV4LbC__Ov-324" vertex="1">
          <mxGeometry x="447.40383561643836" y="585.7037037037037" width="118.52054794520548" height="65.18518518518518" as="geometry" />
        </mxCell>
        <mxCell id="MWshiME6rKWV4LbC__Ov-186" value="" style="group;dashed=1;" parent="MWshiME6rKWV4LbC__Ov-324" vertex="1" connectable="0">
          <mxGeometry x="459.2558904109589" y="680.5185185185185" width="110.22410958904109" height="41.48148148148148" as="geometry" />
        </mxCell>
        <mxCell id="MWshiME6rKWV4LbC__Ov-187" value="" style="rounded=0;whiteSpace=wrap;html=1;dashed=1;" parent="MWshiME6rKWV4LbC__Ov-186" vertex="1">
          <mxGeometry x="-14.222465753424657" y="-5.925925925925926" width="124.44657534246575" height="47.407407407407405" as="geometry" />
        </mxCell>
        <mxCell id="MWshiME6rKWV4LbC__Ov-188" value="" style="pointerEvents=1;verticalLabelPosition=bottom;shadow=0;align=center;fillColor=strokeColor;html=1;verticalAlign=top;strokeWidth=1;shape=mxgraph.electrical.miscellaneous.multicell_battery_tapped;rotation=-180;" parent="MWshiME6rKWV4LbC__Ov-186" vertex="1">
          <mxGeometry x="32.00054794520548" width="32.00054794520548" height="35.55555555555556" as="geometry" />
        </mxCell>
        <mxCell id="MWshiME6rKWV4LbC__Ov-189" value="" style="pointerEvents=1;verticalLabelPosition=bottom;shadow=0;align=center;fillColor=strokeColor;html=1;verticalAlign=top;strokeWidth=1;shape=mxgraph.electrical.miscellaneous.multicell_battery_tapped;rotation=-180;" parent="MWshiME6rKWV4LbC__Ov-186" vertex="1">
          <mxGeometry width="32.00054794520548" height="35.55555555555556" as="geometry" />
        </mxCell>
        <mxCell id="MWshiME6rKWV4LbC__Ov-190" value="" style="pointerEvents=1;verticalLabelPosition=bottom;shadow=0;align=center;fillColor=strokeColor;html=1;verticalAlign=top;strokeWidth=1;shape=mxgraph.electrical.miscellaneous.multicell_battery_tapped;rotation=-180;" parent="MWshiME6rKWV4LbC__Ov-186" vertex="1">
          <mxGeometry x="64.00109589041097" width="32.00054794520548" height="35.55555555555556" as="geometry" />
        </mxCell>
        <mxCell id="MWshiME6rKWV4LbC__Ov-191" value="" style="endArrow=classic;html=1;rounded=0;entryX=1;entryY=0.43;entryDx=0;entryDy=0;entryPerimeter=0;exitX=0.101;exitY=1.022;exitDx=0;exitDy=0;exitPerimeter=0;fillColor=#f8cecc;strokeColor=#b85450;dashed=1;" parent="MWshiME6rKWV4LbC__Ov-324" source="MWshiME6rKWV4LbC__Ov-185" target="MWshiME6rKWV4LbC__Ov-189" edge="1">
          <mxGeometry width="50" height="50" relative="1" as="geometry">
            <mxPoint x="405.92164383561646" y="698.2962962962963" as="sourcePoint" />
            <mxPoint x="435.5517808219178" y="668.6666666666666" as="targetPoint" />
          </mxGeometry>
        </mxCell>
        <mxCell id="MWshiME6rKWV4LbC__Ov-192" value="" style="endArrow=none;html=1;rounded=0;entryX=1;entryY=0.43;entryDx=0;entryDy=0;entryPerimeter=0;exitX=0.101;exitY=1.022;exitDx=0;exitDy=0;exitPerimeter=0;fillColor=#dae8fc;strokeColor=#6c8ebf;endFill=0;startArrow=classic;startFill=1;dashed=1;" parent="MWshiME6rKWV4LbC__Ov-324" edge="1">
          <mxGeometry width="50" height="50" relative="1" as="geometry">
            <mxPoint x="555.2575342465753" y="650.8888888888889" as="sourcePoint" />
            <mxPoint x="555.2575342465753" y="699.4814814814815" as="targetPoint" />
          </mxGeometry>
        </mxCell>
        <mxCell id="MWshiME6rKWV4LbC__Ov-196" value="A" style="verticalLabelPosition=middle;shadow=0;dashed=1;align=center;html=1;verticalAlign=middle;strokeWidth=1;shape=ellipse;aspect=fixed;fontSize=50;" parent="MWshiME6rKWV4LbC__Ov-324" vertex="1">
          <mxGeometry x="465.18191780821917" y="603.4814814814815" width="29.629629629629626" height="29.629629629629626" as="geometry" />
        </mxCell>
        <mxCell id="MWshiME6rKWV4LbC__Ov-197" value="V" style="verticalLabelPosition=middle;shadow=0;dashed=1;align=center;html=1;verticalAlign=middle;strokeWidth=1;shape=ellipse;aspect=fixed;fontSize=50;" parent="MWshiME6rKWV4LbC__Ov-324" vertex="1">
          <mxGeometry x="512.5901369863013" y="603.4814814814815" width="29.629629629629626" height="29.629629629629626" as="geometry" />
        </mxCell>
        <mxCell id="MWshiME6rKWV4LbC__Ov-229" value="" style="group" parent="MWshiME6rKWV4LbC__Ov-324" vertex="1" connectable="0">
          <mxGeometry x="35" y="397.65" width="130" height="125" as="geometry" />
        </mxCell>
        <mxCell id="MWshiME6rKWV4LbC__Ov-215" value="" style="ellipse;whiteSpace=wrap;html=1;aspect=fixed;dashed=1;dashPattern=1 1;" parent="MWshiME6rKWV4LbC__Ov-229" vertex="1">
          <mxGeometry x="6" y="5" width="116.07142857142854" height="116.07142857142854" as="geometry" />
        </mxCell>
        <mxCell id="MWshiME6rKWV4LbC__Ov-217" value="" style="verticalLabelPosition=bottom;shadow=0;dashed=0;align=center;html=1;verticalAlign=top;shape=mxgraph.electrical.radio.aerial_-_antenna_1;" parent="MWshiME6rKWV4LbC__Ov-229" vertex="1">
          <mxGeometry x="52" y="8.560606060606066" width="26" height="33.33333333333332" as="geometry" />
        </mxCell>
        <mxCell id="MWshiME6rKWV4LbC__Ov-218" value="" style="verticalLabelPosition=bottom;shadow=0;dashed=0;align=center;html=1;verticalAlign=top;shape=mxgraph.electrical.abstract.filter;" parent="MWshiME6rKWV4LbC__Ov-229" vertex="1">
          <mxGeometry x="45.303030303030305" y="46.66666666666667" width="40.969696969696976" height="34.84848484848484" as="geometry" />
        </mxCell>
        <mxCell id="MWshiME6rKWV4LbC__Ov-225" value="" style="pointerEvents=1;verticalLabelPosition=bottom;shadow=0;dashed=0;align=center;html=1;verticalAlign=top;shape=mxgraph.electrical.signal_sources.protective_earth;" parent="MWshiME6rKWV4LbC__Ov-229" vertex="1">
          <mxGeometry x="55.151515151515156" y="105.530303030303" width="19.696969696969695" height="15.151515151515147" as="geometry" />
        </mxCell>
        <mxCell id="MWshiME6rKWV4LbC__Ov-232" style="edgeStyle=orthogonalEdgeStyle;rounded=0;orthogonalLoop=1;jettySize=auto;html=1;exitX=0.5;exitY=1;exitDx=0;exitDy=0;entryX=1;entryY=0.5;entryDx=0;entryDy=0;startArrow=classic;startFill=1;" parent="MWshiME6rKWV4LbC__Ov-324" source="MWshiME6rKWV4LbC__Ov-5" target="MWshiME6rKWV4LbC__Ov-215" edge="1">
          <mxGeometry relative="1" as="geometry" />
        </mxCell>
        <mxCell id="MWshiME6rKWV4LbC__Ov-230" value="" style="group" parent="MWshiME6rKWV4LbC__Ov-324" vertex="1" connectable="0">
          <mxGeometry x="39" y="255" width="130" height="115" as="geometry" />
        </mxCell>
        <mxCell id="MWshiME6rKWV4LbC__Ov-21" value="" style="ellipse;whiteSpace=wrap;html=1;aspect=fixed;dashed=1;dashPattern=1 1;" parent="MWshiME6rKWV4LbC__Ov-230" vertex="1">
          <mxGeometry width="115" height="115" as="geometry" />
        </mxCell>
        <mxCell id="MWshiME6rKWV4LbC__Ov-24" value="M" style="verticalLabelPosition=middle;shadow=0;dashed=1;align=center;html=1;verticalAlign=middle;strokeWidth=1;shape=ellipse;fontSize=32;perimeter=ellipsePerimeter;" parent="MWshiME6rKWV4LbC__Ov-230" vertex="1">
          <mxGeometry x="45.303030303030305" y="10.454545454545455" width="39.39393939393939" height="34.84848484848485" as="geometry" />
        </mxCell>
        <mxCell id="MWshiME6rKWV4LbC__Ov-25" value="M" style="verticalLabelPosition=middle;shadow=0;dashed=1;align=center;html=1;verticalAlign=middle;strokeWidth=1;shape=ellipse;fontSize=32;perimeter=ellipsePerimeter;" parent="MWshiME6rKWV4LbC__Ov-230" vertex="1">
          <mxGeometry x="5.909090909090909" y="45.303030303030305" width="39.39393939393939" height="34.84848484848485" as="geometry" />
        </mxCell>
        <mxCell id="MWshiME6rKWV4LbC__Ov-26" value="" style="verticalLabelPosition=bottom;shadow=0;dashed=1;align=center;html=1;verticalAlign=top;shape=mxgraph.electrical.rot_mech.field;pointerEvents=1;rotation=90;" parent="MWshiME6rKWV4LbC__Ov-230" vertex="1">
          <mxGeometry x="45.303030303030305" y="87.12121212121212" width="42.54545454545454" height="6.96969696969697" as="geometry" />
        </mxCell>
        <mxCell id="MWshiME6rKWV4LbC__Ov-27" value="" style="pointerEvents=1;verticalLabelPosition=bottom;shadow=0;dashed=1;align=center;html=1;verticalAlign=top;shape=mxgraph.electrical.inductors.inductor_5;rotation=90;" parent="MWshiME6rKWV4LbC__Ov-230" vertex="1">
          <mxGeometry x="82.72727272727273" y="52.62121212121212" width="47.27272727272727" height="9.757575757575758" as="geometry" />
        </mxCell>
        <mxCell id="MWshiME6rKWV4LbC__Ov-235" value="" style="edgeStyle=orthogonalEdgeStyle;rounded=0;orthogonalLoop=1;jettySize=auto;html=1;startArrow=classic;startFill=1;" parent="MWshiME6rKWV4LbC__Ov-324" source="MWshiME6rKWV4LbC__Ov-21" target="MWshiME6rKWV4LbC__Ov-5" edge="1">
          <mxGeometry relative="1" as="geometry" />
        </mxCell>
        <mxCell id="MWshiME6rKWV4LbC__Ov-236" value="" style="edgeStyle=orthogonalEdgeStyle;rounded=0;orthogonalLoop=1;jettySize=auto;html=1;entryX=0.129;entryY=0.021;entryDx=0;entryDy=0;entryPerimeter=0;startArrow=classic;startFill=1;" parent="MWshiME6rKWV4LbC__Ov-324" source="MWshiME6rKWV4LbC__Ov-224" target="MWshiME6rKWV4LbC__Ov-5" edge="1">
          <mxGeometry relative="1" as="geometry" />
        </mxCell>
        <mxCell id="MWshiME6rKWV4LbC__Ov-224" value="" style="rounded=0;whiteSpace=wrap;html=1;dashed=1;" parent="MWshiME6rKWV4LbC__Ov-324" vertex="1">
          <mxGeometry x="40" y="79.64999999999998" width="120" height="154.7" as="geometry" />
        </mxCell>
        <mxCell id="MWshiME6rKWV4LbC__Ov-216" value="" style="verticalLabelPosition=bottom;shadow=0;dashed=0;align=center;html=1;verticalAlign=top;shape=mxgraph.electrical.opto_electronics.led_2;pointerEvents=1;" parent="MWshiME6rKWV4LbC__Ov-324" vertex="1">
          <mxGeometry x="60" y="88.64999999999998" width="40" height="22" as="geometry" />
        </mxCell>
        <mxCell id="MWshiME6rKWV4LbC__Ov-219" value="" style="verticalLabelPosition=bottom;shadow=0;dashed=0;align=center;html=1;verticalAlign=top;shape=mxgraph.electrical.opto_electronics.led_2;pointerEvents=1;" parent="MWshiME6rKWV4LbC__Ov-324" vertex="1">
          <mxGeometry x="70" y="98.64999999999998" width="40" height="22" as="geometry" />
        </mxCell>
        <mxCell id="MWshiME6rKWV4LbC__Ov-220" value="" style="verticalLabelPosition=bottom;shadow=0;dashed=0;align=center;html=1;verticalAlign=top;shape=mxgraph.electrical.opto_electronics.led_2;pointerEvents=1;" parent="MWshiME6rKWV4LbC__Ov-324" vertex="1">
          <mxGeometry x="80" y="108.64999999999998" width="40" height="22" as="geometry" />
        </mxCell>
        <mxCell id="MWshiME6rKWV4LbC__Ov-221" value="" style="verticalLabelPosition=bottom;shadow=0;dashed=0;align=center;html=1;verticalAlign=top;shape=mxgraph.electrical.opto_electronics.led_2;pointerEvents=1;" parent="MWshiME6rKWV4LbC__Ov-324" vertex="1">
          <mxGeometry x="90" y="118.64999999999998" width="40" height="22" as="geometry" />
        </mxCell>
        <mxCell id="MWshiME6rKWV4LbC__Ov-222" value="" style="verticalLabelPosition=bottom;shadow=0;dashed=0;align=center;html=1;verticalAlign=top;shape=mxgraph.electrical.opto_electronics.led_2;pointerEvents=1;" parent="MWshiME6rKWV4LbC__Ov-324" vertex="1">
          <mxGeometry x="100" y="128.64999999999998" width="40" height="22" as="geometry" />
        </mxCell>
        <mxCell id="MWshiME6rKWV4LbC__Ov-223" value="" style="verticalLabelPosition=bottom;shadow=0;dashed=0;align=center;html=1;verticalAlign=top;shape=mxgraph.electrical.opto_electronics.led_2;pointerEvents=1;" parent="MWshiME6rKWV4LbC__Ov-324" vertex="1">
          <mxGeometry x="110" y="138.64999999999998" width="40" height="22" as="geometry" />
        </mxCell>
        <mxCell id="MWshiME6rKWV4LbC__Ov-226" value="" style="pointerEvents=1;verticalLabelPosition=bottom;shadow=0;dashed=0;align=center;html=1;verticalAlign=top;shape=mxgraph.electrical.electro-mechanical.loudspeaker;" parent="MWshiME6rKWV4LbC__Ov-324" vertex="1">
          <mxGeometry x="60" y="138.35000000000002" width="25" height="50" as="geometry" />
        </mxCell>
        <mxCell id="MWshiME6rKWV4LbC__Ov-227" value="" style="pointerEvents=1;verticalLabelPosition=bottom;shadow=0;dashed=0;align=center;html=1;verticalAlign=top;shape=mxgraph.electrical.electro-mechanical.dpst2;elSwitchState=off;" parent="MWshiME6rKWV4LbC__Ov-324" vertex="1">
          <mxGeometry x="75" y="188.35000000000002" width="75" height="39" as="geometry" />
        </mxCell>
        <mxCell id="MWshiME6rKWV4LbC__Ov-309" value="" style="endArrow=classic;html=1;rounded=0;exitX=0.75;exitY=1;exitDx=0;exitDy=0;entryX=0.7;entryY=0.163;entryDx=0;entryDy=0;entryPerimeter=0;" parent="MWshiME6rKWV4LbC__Ov-324" source="MWshiME6rKWV4LbC__Ov-5" target="MWshiME6rKWV4LbC__Ov-310" edge="1">
          <mxGeometry width="50" height="50" relative="1" as="geometry">
            <mxPoint x="270" y="592" as="sourcePoint" />
            <mxPoint x="303" y="591" as="targetPoint" />
          </mxGeometry>
        </mxCell>
        <mxCell id="MWshiME6rKWV4LbC__Ov-310" value="Internet" style="ellipse;shape=cloud;whiteSpace=wrap;html=1;" parent="MWshiME6rKWV4LbC__Ov-324" vertex="1">
          <mxGeometry x="215" y="577" width="120" height="80" as="geometry" />
        </mxCell>
        <mxCell id="MWshiME6rKWV4LbC__Ov-311" value="&lt;font size=&quot;1&quot;&gt;&lt;b style=&quot;font-size: 22px;&quot;&gt;1&lt;/b&gt;&lt;/font&gt;" style="ellipse;whiteSpace=wrap;html=1;aspect=fixed;fillColor=#f5f5f5;fontColor=#333333;strokeColor=#666666;" parent="MWshiME6rKWV4LbC__Ov-324" vertex="1">
          <mxGeometry x="7" y="134.00000000000006" width="28" height="28" as="geometry" />
        </mxCell>
        <mxCell id="MWshiME6rKWV4LbC__Ov-312" value="&lt;font size=&quot;1&quot;&gt;&lt;b style=&quot;font-size: 22px;&quot;&gt;2&lt;/b&gt;&lt;/font&gt;" style="ellipse;whiteSpace=wrap;html=1;aspect=fixed;fillColor=#f5f5f5;fontColor=#333333;strokeColor=#666666;" parent="MWshiME6rKWV4LbC__Ov-324" vertex="1">
          <mxGeometry x="7" y="298" width="28" height="28" as="geometry" />
        </mxCell>
        <mxCell id="MWshiME6rKWV4LbC__Ov-314" value="&lt;font size=&quot;1&quot;&gt;&lt;b style=&quot;font-size: 22px;&quot;&gt;3&lt;/b&gt;&lt;/font&gt;" style="ellipse;whiteSpace=wrap;html=1;aspect=fixed;fillColor=#f5f5f5;fontColor=#333333;strokeColor=#666666;" parent="MWshiME6rKWV4LbC__Ov-324" vertex="1">
          <mxGeometry x="10" y="442" width="28" height="28" as="geometry" />
        </mxCell>
        <mxCell id="MWshiME6rKWV4LbC__Ov-315" value="&lt;font size=&quot;1&quot;&gt;&lt;b style=&quot;font-size: 22px;&quot;&gt;4&lt;/b&gt;&lt;/font&gt;" style="ellipse;whiteSpace=wrap;html=1;aspect=fixed;fillColor=#f5f5f5;fontColor=#333333;strokeColor=#666666;" parent="MWshiME6rKWV4LbC__Ov-324" vertex="1">
          <mxGeometry x="569.48" y="95.64999999999998" width="28" height="28" as="geometry" />
        </mxCell>
        <mxCell id="MWshiME6rKWV4LbC__Ov-318" value="&lt;font size=&quot;1&quot;&gt;&lt;b style=&quot;font-size: 22px;&quot;&gt;5&lt;/b&gt;&lt;/font&gt;" style="ellipse;whiteSpace=wrap;html=1;aspect=fixed;fillColor=#f5f5f5;fontColor=#333333;strokeColor=#666666;" parent="MWshiME6rKWV4LbC__Ov-324" vertex="1">
          <mxGeometry x="700" y="313" width="28" height="28" as="geometry" />
        </mxCell>
        <mxCell id="MWshiME6rKWV4LbC__Ov-319" value="&lt;font size=&quot;1&quot;&gt;&lt;b style=&quot;font-size: 22px;&quot;&gt;6&lt;/b&gt;&lt;/font&gt;" style="ellipse;whiteSpace=wrap;html=1;aspect=fixed;fillColor=#f5f5f5;fontColor=#333333;strokeColor=#666666;" parent="MWshiME6rKWV4LbC__Ov-324" vertex="1">
          <mxGeometry x="597.48" y="539.9300000000001" width="28" height="28" as="geometry" />
        </mxCell>
        <mxCell id="MWshiME6rKWV4LbC__Ov-325" value="&lt;h1&gt;Martin 2022 proto.&lt;br&gt;&lt;/h1&gt;&lt;p style=&quot;font-size: 13px;&quot;&gt;&lt;font style=&quot;font-size: 15px;&quot;&gt;Общая схема универсального модуля зарядки (4) и общая схема заряжаемого модуля(5&lt;/font&gt;)&lt;br&gt;&lt;/p&gt;" style="text;html=1;strokeColor=none;fillColor=none;spacing=5;spacingTop=-20;whiteSpace=wrap;overflow=hidden;rounded=0;" parent="1" vertex="1">
          <mxGeometry x="842" y="10" width="218" height="170" as="geometry" />
        </mxCell>
        <mxCell id="MWshiME6rKWV4LbC__Ov-326" value="ver: proto2304" style="text;html=1;align=center;verticalAlign=middle;resizable=0;points=[];autosize=1;strokeColor=none;fillColor=none;" parent="1" vertex="1">
          <mxGeometry x="720" y="10" width="100" height="30" as="geometry" />
        </mxCell>
        <mxCell id="MWshiME6rKWV4LbC__Ov-327" value="ver: proto2304" style="text;html=1;align=center;verticalAlign=middle;resizable=0;points=[];autosize=1;strokeColor=none;fillColor=none;" parent="1" vertex="1">
          <mxGeometry x="1542" y="10" width="100" height="30" as="geometry" />
        </mxCell>
        <mxCell id="nwGlgBzPXkeHs2H_V2Eb-2" value="&lt;h1&gt;&lt;font style=&quot;font-size: 22px;&quot;&gt;Модуль зарядки&lt;/font&gt;&lt;/h1&gt;&lt;p&gt;&lt;b&gt;В полнофункциональной версии: &lt;/b&gt;&lt;br&gt;диапазон напряжения заряда должен быть от 8.4В до 25.2В и регулироваться/переключаться через I2C. &lt;br&gt;нужные значения между которыми требуется переключаться в 1-ой версии: 8.4В 12.6В 16.8В 25.2В.&lt;br&gt;Также в 1-ой версии потребуется что бы по запросу ток зарядки ограничивался в дипазоне от 2А до 15А.&lt;/p&gt;&lt;p&gt;&lt;b&gt;В прототипе&lt;/b&gt;:&lt;br&gt; 1. Единственное значение напряжения зарядки 12.6В&lt;br&gt;2. ток ограничения желательно сделать регулируемым. &lt;br&gt;&amp;nbsp; (Пофиг как...если и это сложно то просто 5А.)&lt;br&gt;3. &lt;b&gt;i2C&lt;/b&gt; - АмВо-метр&lt;br&gt;&lt;/p&gt;" style="text;html=1;strokeColor=none;fillColor=none;spacing=5;spacingTop=-20;whiteSpace=wrap;overflow=hidden;rounded=0;" parent="1" vertex="1">
          <mxGeometry x="1270" y="40" width="350" height="240" as="geometry" />
        </mxCell>
        <mxCell id="nwGlgBzPXkeHs2H_V2Eb-4" value="&lt;h1&gt;Батарея&lt;br&gt;&lt;/h1&gt;&lt;p&gt;В &lt;b&gt;прототипе&lt;/b&gt; это:&lt;br&gt;1. Только три элемента -- коммутатор, балансировщик, батарея.&lt;br&gt;2. комутатор -- ручной тумблер. (заряд/разряд)&lt;br&gt;&lt;/p&gt;" style="text;html=1;strokeColor=none;fillColor=none;spacing=5;spacingTop=-20;whiteSpace=wrap;overflow=hidden;rounded=0;" parent="1" vertex="1">
          <mxGeometry x="1259" y="1049" width="380" height="101" as="geometry" />
        </mxCell>
      </root>
    </mxGraphModel>
  </diagram>
</mxfile>
